<svg xmlns="http://www.w3.org/2000/svg" width="126" height="53" viewBox="0 0 126 53">
  <metadata><?xpacket begin="﻿" id="W5M0MpCehiHzreSzNTczkc9d"?>
<x:xmpmeta xmlns:x="adobe:ns:meta/" x:xmptk="Adobe XMP Core 5.6-c138 79.159824, 2016/09/14-01:09:01        ">
   <rdf:RDF xmlns:rdf="http://www.w3.org/1999/02/22-rdf-syntax-ns#">
      <rdf:Description rdf:about=""/>
   </rdf:RDF>
</x:xmpmeta>
                                                                                                    
                                                                                                    
                                                                                                    
                                                                                                    
                                                                                                    
                                                                                                    
                                                                                                    
                                                                                                    
                                                                                                    
                                                                                                    
                                                                                                    
                                                                                                    
                                                                                                    
                                                                                                    
                                                                                                    
                                                                                                    
                                                                                                    
                                                                                                    
                                                                                                    
                                                                                                    
                           
<?xpacket end="w"?></metadata>
<defs>
    <style>
      .cls-1 {
        fill: #fe3e57;
        fill-rule: evenodd;
      }
    </style>
  </defs>
  <path class="cls-1" d="M1568.52,5709.26a1.74,1.74,0,1,1,1.74,1.74A1.741,1.741,0,0,1,1568.52,5709.26Zm-13.71,0a1.74,1.74,0,1,1,1.74,1.74A1.741,1.741,0,0,1,1554.81,5709.26Zm-13.49,0a1.74,1.74,0,1,1,1.74,1.74A1.741,1.741,0,0,1,1541.32,5709.26Zm-13.71,0a1.74,1.74,0,1,1,1.74,1.74A1.741,1.741,0,0,1,1527.61,5709.26Zm-13.5,0a1.745,1.745,0,1,1,1.74,1.74A1.741,1.741,0,0,1,1514.11,5709.26Zm-13.71,0a1.745,1.745,0,1,1,1.74,1.74A1.741,1.741,0,0,1,1500.4,5709.26Zm-13.49,0a1.74,1.74,0,1,1,1.74,1.74A1.741,1.741,0,0,1,1486.91,5709.26Zm-13.71,0a1.74,1.74,0,1,1,1.74,1.74A1.741,1.741,0,0,1,1473.2,5709.26Zm-13.49,0a1.74,1.74,0,1,1,1.74,1.74A1.741,1.741,0,0,1,1459.71,5709.26Zm-13.71,0a1.74,1.74,0,1,1,1.74,1.74A1.741,1.741,0,0,1,1446,5709.26Zm122.52-16.51a1.74,1.74,0,1,1,1.74,1.74A1.733,1.733,0,0,1,1568.52,5692.75Zm-13.71,0a1.74,1.74,0,1,1,1.74,1.74A1.733,1.733,0,0,1,1554.81,5692.75Zm-13.49,0a1.74,1.74,0,1,1,1.74,1.74A1.733,1.733,0,0,1,1541.32,5692.75Zm-13.71,0a1.74,1.74,0,1,1,1.74,1.74A1.733,1.733,0,0,1,1527.61,5692.75Zm-13.5,0a1.745,1.745,0,1,1,1.74,1.74A1.733,1.733,0,0,1,1514.11,5692.75Zm-13.71,0a1.745,1.745,0,1,1,1.74,1.74A1.733,1.733,0,0,1,1500.4,5692.75Zm-13.49,0a1.74,1.74,0,1,1,1.74,1.74A1.733,1.733,0,0,1,1486.91,5692.75Zm-13.71,0a1.74,1.74,0,1,1,1.74,1.74A1.733,1.733,0,0,1,1473.2,5692.75Zm-13.49,0a1.74,1.74,0,1,1,1.74,1.74A1.733,1.733,0,0,1,1459.71,5692.75Zm-13.71,0a1.74,1.74,0,1,1,1.74,1.74A1.733,1.733,0,0,1,1446,5692.75Zm122.52-16.5a1.74,1.74,0,1,1,1.74,1.73A1.741,1.741,0,0,1,1568.52,5676.25Zm-13.71,0a1.74,1.74,0,1,1,1.74,1.73A1.741,1.741,0,0,1,1554.81,5676.25Zm-13.49,0a1.74,1.74,0,1,1,1.74,1.73A1.741,1.741,0,0,1,1541.32,5676.25Zm-13.71,0a1.74,1.74,0,1,1,1.74,1.73A1.741,1.741,0,0,1,1527.61,5676.25Zm-13.5,0a1.745,1.745,0,1,1,1.74,1.73A1.741,1.741,0,0,1,1514.11,5676.25Zm-13.71,0a1.745,1.745,0,1,1,1.74,1.73A1.741,1.741,0,0,1,1500.4,5676.25Zm-13.49,0a1.74,1.74,0,1,1,1.74,1.73A1.741,1.741,0,0,1,1486.91,5676.25Zm-13.71,0a1.74,1.74,0,1,1,1.74,1.73A1.741,1.741,0,0,1,1473.2,5676.25Zm-13.49,0a1.74,1.74,0,1,1,1.74,1.73A1.741,1.741,0,0,1,1459.71,5676.25Zm-13.71,0a1.74,1.74,0,1,1,1.74,1.73A1.741,1.741,0,0,1,1446,5676.25Zm122.52-16.51a1.74,1.74,0,1,1,1.74,1.74A1.741,1.741,0,0,1,1568.52,5659.74Zm-13.71,0a1.74,1.74,0,1,1,1.74,1.74A1.741,1.741,0,0,1,1554.81,5659.74Zm-13.49,0a1.74,1.74,0,1,1,1.74,1.74A1.741,1.741,0,0,1,1541.32,5659.74Zm-13.71,0a1.74,1.74,0,1,1,1.74,1.74A1.741,1.741,0,0,1,1527.61,5659.74Zm-13.5,0a1.745,1.745,0,1,1,1.74,1.74A1.741,1.741,0,0,1,1514.11,5659.74Zm-13.71,0a1.745,1.745,0,1,1,1.74,1.74A1.741,1.741,0,0,1,1500.4,5659.74Zm-13.49,0a1.74,1.74,0,1,1,1.74,1.74A1.741,1.741,0,0,1,1486.91,5659.74Zm-13.71,0a1.74,1.74,0,1,1,1.74,1.74A1.741,1.741,0,0,1,1473.2,5659.74Zm-13.49,0a1.74,1.74,0,1,1,1.74,1.74A1.741,1.741,0,0,1,1459.71,5659.74Zm-13.71,0a1.74,1.74,0,1,1,1.74,1.74A1.741,1.741,0,0,1,1446,5659.74Z" transform="translate(-1446 -5658)"/>
</svg>
