<svg xmlns="http://www.w3.org/2000/svg" width="65" height="52" viewBox="0 0 65 52">
  <metadata><?xpacket begin="﻿" id="W5M0MpCehiHzreSzNTczkc9d"?>
<x:xmpmeta xmlns:x="adobe:ns:meta/" x:xmptk="Adobe XMP Core 5.6-c138 79.159824, 2016/09/14-01:09:01        ">
   <rdf:RDF xmlns:rdf="http://www.w3.org/1999/02/22-rdf-syntax-ns#">
      <rdf:Description rdf:about=""/>
   </rdf:RDF>
</x:xmpmeta>
                                                                                                    
                                                                                                    
                                                                                                    
                                                                                                    
                                                                                                    
                                                                                                    
                                                                                                    
                                                                                                    
                                                                                                    
                                                                                                    
                                                                                                    
                                                                                                    
                                                                                                    
                                                                                                    
                                                                                                    
                                                                                                    
                                                                                                    
                                                                                                    
                                                                                                    
                                                                                                    
                           
<?xpacket end="w"?></metadata>
<defs>
    <style>
      .cls-1 {
        fill: #fe3e57;
        fill-rule: evenodd;
      }
    </style>
  </defs>
  <path id="Shape_2" class="cls-1" d="M1505.75,1203a1.735,1.735,0,1,1-1.75,1.73A1.741,1.741,0,0,1,1505.75,1203Zm12.3,0a1.735,1.735,0,1,1-1.77,1.73A1.75,1.75,0,0,1,1518.05,1203Zm12.29,0a1.735,1.735,0,1,1-1.75,1.73A1.741,1.741,0,0,1,1530.34,1203Zm12.32,0a1.735,1.735,0,1,1-1.75,1.73A1.748,1.748,0,0,1,1542.66,1203Zm12.29,0a1.735,1.735,0,1,1-1.76,1.73A1.752,1.752,0,0,1,1554.95,1203Zm12.3,0a1.735,1.735,0,1,1-1.75,1.73A1.741,1.741,0,0,1,1567.25,1203Zm-61.5,12.12a1.735,1.735,0,1,1-1.75,1.74A1.743,1.743,0,0,1,1505.75,1215.12Zm12.3,0a1.735,1.735,0,1,1-1.77,1.74A1.752,1.752,0,0,1,1518.05,1215.12Zm12.29,0a1.735,1.735,0,1,1-1.75,1.74A1.743,1.743,0,0,1,1530.34,1215.12Zm12.32,0a1.735,1.735,0,1,1-1.75,1.74A1.75,1.75,0,0,1,1542.66,1215.12Zm12.29,0a1.735,1.735,0,1,1-1.76,1.74A1.754,1.754,0,0,1,1554.95,1215.12Zm12.3,0a1.735,1.735,0,1,1-1.75,1.74A1.743,1.743,0,0,1,1567.25,1215.12Zm-61.5,12.16A1.72,1.72,0,1,1,1504,1229,1.733,1.733,0,0,1,1505.75,1227.28Zm12.3,0a1.721,1.721,0,1,1-1.77,1.72A1.742,1.742,0,0,1,1518.05,1227.28Zm12.29,0a1.72,1.72,0,1,1-1.75,1.72A1.733,1.733,0,0,1,1530.34,1227.28Zm12.32,0a1.72,1.72,0,1,1-1.75,1.72A1.739,1.739,0,0,1,1542.66,1227.28Zm12.29,0a1.72,1.72,0,1,1-1.76,1.72A1.744,1.744,0,0,1,1554.95,1227.28Zm12.3,0a1.72,1.72,0,1,1-1.75,1.72A1.733,1.733,0,0,1,1567.25,1227.28Zm-61.5,12.13a1.73,1.73,0,1,1-1.75,1.73A1.735,1.735,0,0,1,1505.75,1239.41Zm12.3,0a1.73,1.73,0,1,1-1.77,1.73A1.744,1.744,0,0,1,1518.05,1239.41Zm12.29,0a1.73,1.73,0,1,1-1.75,1.73A1.735,1.735,0,0,1,1530.34,1239.41Zm12.32,0a1.73,1.73,0,1,1-1.75,1.73A1.741,1.741,0,0,1,1542.66,1239.41Zm12.29,0a1.73,1.73,0,1,1-1.76,1.73A1.746,1.746,0,0,1,1554.95,1239.41Zm12.3,0a1.73,1.73,0,1,1-1.75,1.73A1.735,1.735,0,0,1,1567.25,1239.41Zm-61.5,12.12a1.735,1.735,0,1,1-1.75,1.74A1.743,1.743,0,0,1,1505.75,1251.53Zm12.3,0a1.735,1.735,0,1,1-1.77,1.74A1.752,1.752,0,0,1,1518.05,1251.53Zm12.29,0a1.735,1.735,0,1,1-1.75,1.74A1.743,1.743,0,0,1,1530.34,1251.53Zm12.32,0a1.735,1.735,0,1,1-1.75,1.74A1.75,1.75,0,0,1,1542.66,1251.53Zm12.29,0a1.735,1.735,0,1,1-1.76,1.74A1.754,1.754,0,0,1,1554.95,1251.53Zm12.3,0a1.735,1.735,0,1,1-1.75,1.74A1.743,1.743,0,0,1,1567.25,1251.53Z" transform="translate(-1504 -1203)"/>
</svg>
