<svg xmlns="http://www.w3.org/2000/svg" width="120" height="121" viewBox="0 0 120 121">
  <metadata><?xpacket begin="﻿" id="W5M0MpCehiHzreSzNTczkc9d"?>
<x:xmpmeta xmlns:x="adobe:ns:meta/" x:xmptk="Adobe XMP Core 5.6-c138 79.159824, 2016/09/14-01:09:01        ">
   <rdf:RDF xmlns:rdf="http://www.w3.org/1999/02/22-rdf-syntax-ns#">
      <rdf:Description rdf:about=""/>
   </rdf:RDF>
</x:xmpmeta>
                                                                                                    
                                                                                                    
                                                                                                    
                                                                                                    
                                                                                                    
                                                                                                    
                                                                                                    
                                                                                                    
                                                                                                    
                                                                                                    
                                                                                                    
                                                                                                    
                                                                                                    
                                                                                                    
                                                                                                    
                                                                                                    
                                                                                                    
                                                                                                    
                                                                                                    
                                                                                                    
                           
<?xpacket end="w"?></metadata>
<defs>
    <style>
      .cls-1 {
        fill: #ffb534;
        fill-rule: evenodd;
      }
    </style>
  </defs>
  <path id="Shape_1" class="cls-1" d="M391.989,1011.99c-0.375,0-.748,0-1.121-0.01a0.582,0.582,0,0,1-.576-0.6,0.592,0.592,0,0,1,.6-0.58c1.348,0.03,2.718,0,4.067-.06a0.577,0.577,0,0,1,.615.56,0.6,0.6,0,0,1-.557.62C394.013,1011.97,393,1011.99,391.989,1011.99Zm-5.21-.22a0.094,0.094,0,0,1-.051-0.01c-1.372-.12-2.756-0.29-4.116-0.5a0.592,0.592,0,0,1,.182-1.17c1.333,0.21,2.691.38,4.036,0.5a0.582,0.582,0,0,1,.533.64A0.594,0.594,0,0,1,386.779,1011.77Zm12.3-.2a0.588,0.588,0,0,1-.583-0.52,0.6,0.6,0,0,1,.514-0.66c1.343-.16,2.694-0.37,4.018-0.62a0.59,0.59,0,0,1,.219,1.16c-1.35.26-2.729,0.47-4.1,0.64h-0.069Zm-20.406-1.09a0.583,0.583,0,0,1-.131-0.01c-1.344-.31-2.692-0.67-4.008-1.08a0.59,0.59,0,0,1,.341-1.13c1.29,0.4,2.612.75,3.929,1.06A0.588,0.588,0,0,1,378.671,1010.48Zm28.468-.45a0.592,0.592,0,0,1-.566-0.44,0.585,0.585,0,0,1,.418-0.72c1.3-.35,2.614-0.75,3.893-1.18a0.581,0.581,0,0,1,.745.37,0.6,0.6,0,0,1-.368.75c-1.305.44-2.641,0.85-3.972,1.2A0.772,0.772,0,0,1,407.139,1010.03Zm-36.328-1.95a0.514,0.514,0,0,1-.209-0.04c-1.288-.5-2.575-1.04-3.826-1.63a0.591,0.591,0,0,1-.286-0.78,0.581,0.581,0,0,1,.78-0.29c1.227,0.57,2.488,1.11,3.75,1.59A0.6,0.6,0,0,1,370.811,1008.08Zm44.1-.7a0.594,0.594,0,0,1-.227-1.14c1.243-.53,2.484-1.1,3.69-1.71a0.581,0.581,0,0,1,.788.26,0.587,0.587,0,0,1-.26.79c-1.231.63-2.5,1.21-3.765,1.75A0.611,0.611,0,0,1,414.908,1007.38Zm-51.552-2.79a0.575,0.575,0,0,1-.282-0.07c-1.206-.67-2.405-1.39-3.564-2.14a0.6,0.6,0,0,1-.175-0.82,0.579,0.579,0,0,1,.812-0.18c1.136,0.74,2.311,1.45,3.493,2.1a0.6,0.6,0,0,1,.231.81A0.592,0.592,0,0,1,363.356,1004.59Zm58.88-.93a0.577,0.577,0,0,1-.5-0.29,0.6,0.6,0,0,1,.2-0.81c1.16-.69,2.311-1.43,3.423-2.21a0.593,0.593,0,0,1,.667.98c-1.134.79-2.309,1.54-3.491,2.25A0.543,0.543,0,0,1,422.236,1003.66Zm-65.782-3.55a0.573,0.573,0,0,1-.351-0.121c-1.105-.833-2.194-1.713-3.236-2.618a0.594,0.594,0,0,1-.062-0.834,0.582,0.582,0,0,1,.827-0.062c1.022,0.886,2.09,1.75,3.173,2.566A0.595,0.595,0,0,1,356.454,1000.11Zm72.535-1.143a0.58,0.58,0,0,1-.459-0.223,0.6,0.6,0,0,1,.093-0.832c1.052-.845,2.092-1.74,3.091-2.663a0.585,0.585,0,0,1,.83.037,0.594,0.594,0,0,1-.037.836c-1.019.941-2.079,1.854-3.153,2.716A0.586,0.586,0,0,1,428.989,998.967Zm-78.76-4.259a0.581,0.581,0,0,1-.412-0.171c-0.98-.976-1.939-2-2.849-3.038a0.6,0.6,0,0,1,.052-0.836,0.585,0.585,0,0,1,.829.053c0.892,1.019,1.832,2.021,2.793,2.979a0.6,0.6,0,0,1,0,.837A0.584,0.584,0,0,1,350.229,994.708Zm84.814-1.33a0.581,0.581,0,0,1-.405-0.163,0.6,0.6,0,0,1-.021-0.837c0.931-.985,1.84-2.016,2.7-3.066a0.585,0.585,0,0,1,.826-0.078,0.6,0.6,0,0,1,.077.834c-0.879,1.069-1.805,2.121-2.754,3.127A0.584,0.584,0,0,1,435.043,993.378ZM344.8,988.5a0.586,0.586,0,0,1-.467-0.232c-0.834-1.1-1.644-2.243-2.407-3.4a0.6,0.6,0,0,1,.165-0.821,0.584,0.584,0,0,1,.813.166c0.748,1.138,1.543,2.26,2.361,3.337a0.593,0.593,0,0,1-.109.829A0.576,0.576,0,0,1,344.8,988.5ZM440.28,987a0.585,0.585,0,0,1-.341-0.111,0.6,0.6,0,0,1-.135-0.826c0.791-1.111,1.551-2.259,2.258-3.412a0.584,0.584,0,0,1,.809-0.192,0.6,0.6,0,0,1,.19.815c-0.722,1.176-1.5,2.346-2.3,3.479A0.586,0.586,0,0,1,440.28,987Zm-100.01-5.4a0.583,0.583,0,0,1-.511-0.3c-0.679-1.205-1.324-2.451-1.919-3.7a0.6,0.6,0,0,1,.275-0.79,0.584,0.584,0,0,1,.783.278c0.584,1.227,1.217,2.448,1.882,3.631a0.593,0.593,0,0,1-.221.806A0.582,0.582,0,0,1,340.27,981.607ZM444.6,979.961a0.58,0.58,0,0,1-.272-0.068,0.594,0.594,0,0,1-.246-0.8c0.631-1.209,1.226-2.452,1.77-3.694a0.587,0.587,0,0,1,.774-0.3,0.6,0.6,0,0,1,.3.781c-0.554,1.268-1.162,2.536-1.806,3.769A0.588,0.588,0,0,1,444.6,979.961Zm-107.875-5.808a0.589,0.589,0,0,1-.546-0.374c-0.506-1.288-.975-2.613-1.393-3.938a0.594,0.594,0,0,1,.381-0.744,0.588,0.588,0,0,1,.738.384c0.41,1.3.869,2.6,1.366,3.861a0.593,0.593,0,0,1-.33.768A0.57,0.57,0,0,1,336.726,974.153Zm111.19-1.772a0.577,0.577,0,0,1-.2-0.036,0.592,0.592,0,0,1-.353-0.757c0.456-1.277.874-2.59,1.243-3.9a0.586,0.586,0,0,1,.724-0.408,0.592,0.592,0,0,1,.4.73c-0.375,1.34-.8,2.679-1.268,3.982A0.588,0.588,0,0,1,447.916,972.381Zm-113.677-6.115a0.586,0.586,0,0,1-.57-0.452c-0.325-1.345-.606-2.723-0.838-4.094a0.592,0.592,0,0,1,.48-0.683,0.586,0.586,0,0,1,.677.484c0.228,1.345.5,2.7,0.821,4.014a0.592,0.592,0,0,1-.431.715A0.56,0.56,0,0,1,334.239,966.266Zm115.914-1.848a0.621,0.621,0,0,1-.121-0.012,0.592,0.592,0,0,1-.454-0.7c0.276-1.333.509-2.691,0.694-4.038a0.583,0.583,0,0,1,.661-0.506,0.591,0.591,0,0,1,.5.668c-0.187,1.373-.426,2.759-0.708,4.118A0.587,0.587,0,0,1,450.153,964.418Zm-117.292-6.309a0.589,0.589,0,0,1-.584-0.532c-0.137-1.383-.228-2.785-0.27-4.172a0.587,0.587,0,1,1,1.173-.036c0.042,1.359.131,2.735,0.265,4.09a0.591,0.591,0,0,1-.525.648C332.9,958.109,332.88,958.109,332.861,958.109Zm118.413-1.888h-0.041a0.592,0.592,0,0,1-.546-0.631c0.092-1.355.139-2.733,0.139-4.1,0-1.245-.039-2.507-0.116-3.751a0.59,0.59,0,0,1,.549-0.627,0.581,0.581,0,0,1,.622.554c0.079,1.267.118,2.555,0.118,3.824,0,1.389-.047,2.795-0.14,4.177A0.588,0.588,0,0,1,451.274,956.221Zm-118.667-6.382h-0.023a0.588,0.588,0,0,1-.564-0.613c0.051-1.39.149-2.793,0.294-4.169a0.587,0.587,0,1,1,1.167.124c-0.141,1.349-.238,2.725-0.289,4.089A0.588,0.588,0,0,1,332.607,949.839ZM450.9,944.177a0.589,0.589,0,0,1-.581-0.514c-0.177-1.35-.4-2.71-0.671-4.043a0.592,0.592,0,0,1,.458-0.7,0.586,0.586,0,0,1,.692.462c0.275,1.36.5,2.747,0.684,4.124a0.59,0.59,0,0,1-.5.664A0.678,0.678,0,0,1,450.9,944.177ZM333.47,941.61a0.583,0.583,0,0,1-.578-0.694c0.239-1.368.529-2.743,0.861-4.09a0.583,0.583,0,0,1,.711-0.43,0.592,0.592,0,0,1,.429.717c-0.327,1.319-.61,2.668-0.845,4.009A0.588,0.588,0,0,1,333.47,941.61Zm115.794-5.541a0.588,0.588,0,0,1-.565-0.434c-0.359-1.309-.769-2.625-1.22-3.91a0.6,0.6,0,0,1,.358-0.756,0.587,0.587,0,0,1,.749.361c0.46,1.312.878,2.654,1.245,3.989a0.593,0.593,0,0,1-.41.728A0.607,0.607,0,0,1,449.264,936.069Zm-113.81-2.487a0.568,0.568,0,0,1-.181-0.03,0.592,0.592,0,0,1-.378-0.745c0.425-1.319.9-2.643,1.418-3.935a0.586,0.586,0,0,1,.764-0.328,0.594,0.594,0,0,1,.325.77c-0.506,1.267-.974,2.565-1.39,3.858A0.588,0.588,0,0,1,335.454,933.582Zm111.08-5.31a0.59,0.59,0,0,1-.54-0.357c-0.533-1.242-1.12-2.487-1.743-3.7a0.594,0.594,0,0,1,.251-0.8,0.585,0.585,0,0,1,.791.253c0.635,1.236,1.234,2.5,1.779,3.773a0.594,0.594,0,0,1-.306.778A0.579,0.579,0,0,1,446.534,928.272ZM338.527,925.9a0.584,0.584,0,0,1-.256-0.059,0.594,0.594,0,0,1-.271-0.791c0.6-1.249,1.257-2.493,1.944-3.7a0.586,0.586,0,0,1,.8-0.218,0.594,0.594,0,0,1,.216.808c-0.674,1.181-1.316,2.4-1.907,3.625A0.584,0.584,0,0,1,338.527,925.9Zm104.231-4.964a0.589,0.589,0,0,1-.5-0.284c-0.7-1.16-1.454-2.311-2.235-3.423a0.6,0.6,0,0,1,.139-0.825,0.583,0.583,0,0,1,.818.141c0.8,1.133,1.565,2.308,2.28,3.49a0.6,0.6,0,0,1-.2.814A0.583,0.583,0,0,1,442.758,920.933ZM342.625,918.72a0.578,0.578,0,0,1-.326-0.1,0.594,0.594,0,0,1-.16-0.821c0.768-1.154,1.586-2.294,2.43-3.39a0.583,0.583,0,0,1,.824-0.1,0.6,0.6,0,0,1,.1.83c-0.829,1.074-1.631,2.193-2.384,3.323A0.587,0.587,0,0,1,342.625,918.72Zm95.388-4.536a0.586,0.586,0,0,1-.455-0.217c-0.857-1.056-1.759-2.093-2.68-3.083a0.594,0.594,0,0,1,.025-0.836,0.585,0.585,0,0,1,.83.026c0.94,1.009,1.86,2.067,2.734,3.144a0.593,0.593,0,0,1-.083.832A0.58,0.58,0,0,1,438.013,914.184Zm-90.35-2a0.578,0.578,0,0,1-.391-0.151,0.594,0.594,0,0,1-.047-0.835c0.916-1.034,1.881-2.05,2.868-3.02a0.584,0.584,0,0,1,.83.01,0.6,0.6,0,0,1-.01.836c-0.968.952-1.914,1.949-2.812,2.962A0.586,0.586,0,0,1,347.663,912.182Zm84.729-4.029a0.585,0.585,0,0,1-.4-0.158c-0.992-.928-2.027-1.831-3.076-2.684a0.6,0.6,0,0,1-.088-0.832,0.584,0.584,0,0,1,.825-0.089c1.07,0.87,2.126,1.791,3.137,2.737a0.6,0.6,0,0,1,.031.836A0.583,0.583,0,0,1,432.392,908.153ZM353.541,906.4a0.583,0.583,0,0,1-.448-0.209,0.594,0.594,0,0,1,.067-0.833c1.05-.9,2.144-1.773,3.251-2.595a0.582,0.582,0,0,1,.82.124,0.594,0.594,0,0,1-.123.827c-1.086.807-2.158,1.663-3.188,2.545A0.578,0.578,0,0,1,353.541,906.4ZM426,902.953a0.575,0.575,0,0,1-.336-0.107c-1.105-.779-2.253-1.53-3.412-2.233a0.594,0.594,0,0,1-.2-0.812,0.582,0.582,0,0,1,.805-0.2c1.184,0.717,2.355,1.483,3.481,2.278a0.6,0.6,0,0,1,.144.824A0.585,0.585,0,0,1,426,902.953ZM360.145,901.5a0.585,0.585,0,0,1-.5-0.275,0.6,0.6,0,0,1,.18-0.817c1.162-.744,2.364-1.457,3.572-2.119a0.585,0.585,0,0,1,.8.238,0.6,0.6,0,0,1-.235.8c-1.186.648-2.364,1.347-3.5,2.077A0.574,0.574,0,0,1,360.145,901.5Zm58.816-2.807a0.566,0.566,0,0,1-.267-0.065c-1.2-.618-2.442-1.2-3.687-1.737a0.593,0.593,0,0,1-.31-0.776,0.585,0.585,0,0,1,.77-0.313c1.27,0.545,2.535,1.141,3.761,1.773a0.594,0.594,0,0,1,.256.795A0.587,0.587,0,0,1,418.961,898.688Zm-51.608-1.138a0.587,0.587,0,0,1-.535-0.346,0.6,0.6,0,0,1,.291-0.784c1.251-.575,2.538-1.114,3.826-1.6a0.584,0.584,0,0,1,.755.347,0.593,0.593,0,0,1-.344.762c-1.262.476-2.523,1-3.75,1.568A0.586,0.586,0,0,1,367.353,897.55Zm44.047-2.1a0.583,0.583,0,0,1-.192-0.033c-1.274-.444-2.582-0.849-3.886-1.2a0.592,0.592,0,0,1,.305-1.143c1.33,0.362,2.664.774,3.964,1.227A0.593,0.593,0,0,1,411.4,895.445Zm-36.366-.8a0.592,0.592,0,0,1-.168-1.159c1.321-.395,2.671-0.749,4.014-1.05a0.592,0.592,0,0,1,.256,1.155c-1.317.295-2.641,0.642-3.935,1.03A0.607,0.607,0,0,1,375.034,894.649Zm28.441-1.356a0.548,0.548,0,0,1-.113-0.011c-1.325-.261-2.676-0.479-4.015-0.648a0.592,0.592,0,0,1,.146-1.174c1.365,0.172,2.743.395,4.094,0.661A0.592,0.592,0,0,1,403.475,893.293Zm-20.431-.444a0.592,0.592,0,0,1-.087-1.177c1.358-.207,2.743-0.368,4.118-0.48a0.591,0.591,0,0,1,.1,1.179c-1.348.11-2.707,0.269-4.038,0.472A0.662,0.662,0,0,1,383.044,892.849Zm12.287-.581H395.3c-1.345-.075-2.72-0.105-4.065-0.087h-0.008a0.592,0.592,0,0,1-.007-1.184c1.377-.018,2.774.013,4.145,0.09A0.592,0.592,0,0,1,395.331,892.268ZM391.99,999.773c-1.257,0-2.526-.05-3.772-0.147a0.591,0.591,0,0,1-.539-0.636,0.579,0.579,0,0,1,.631-0.544c1.215,0.1,2.453.144,3.679,0.144l0.374,0h0a0.592,0.592,0,0,1,0,1.183Zm4.477-.211a0.592,0.592,0,0,1-.055-1.18c1.345-.128,2.7-0.316,4.017-0.559a0.591,0.591,0,0,1,.211,1.164c-1.355.249-2.74,0.442-4.118,0.572A0.507,0.507,0,0,1,396.467,999.562Zm-12.278-.435a0.526,0.526,0,0,1-.1-0.008c-1.365-.228-2.733-0.519-4.067-0.865a0.591,0.591,0,0,1,.292-1.146c1.3,0.337,2.636.621,3.967,0.844A0.592,0.592,0,0,1,384.189,999.127Zm20.349-1.05a0.593,0.593,0,0,1-.155-1.163c1.3-.359,2.6-0.781,3.859-1.253a0.591,0.591,0,0,1,.408,1.109c-1.293.484-2.624,0.917-3.956,1.286A0.609,0.609,0,0,1,404.538,998.077Zm-28.294-1.01a0.611,0.611,0,0,1-.2-0.033c-1.3-.464-2.6-0.991-3.858-1.568a0.593,0.593,0,0,1-.291-0.783,0.584,0.584,0,0,1,.777-0.294c1.227,0.562,2.493,1.076,3.763,1.528a0.593,0.593,0,0,1,.358.755A0.586,0.586,0,0,1,376.244,997.067Zm35.984-1.867a0.587,0.587,0,0,1-.531-0.339,0.594,0.594,0,0,1,.279-0.788c1.214-.58,2.42-1.223,3.584-1.91a0.585,0.585,0,0,1,.8.212,0.593,0.593,0,0,1-.21.809c-1.193.705-2.43,1.364-3.674,1.959A0.592,0.592,0,0,1,412.228,995.2Zm-43.457-1.557a0.582,0.582,0,0,1-.288-0.077c-1.2-.684-2.389-1.429-3.529-2.217a0.6,0.6,0,0,1-.153-0.822,0.585,0.585,0,0,1,.817-0.154c1.111,0.768,2.27,1.5,3.442,2.163a0.594,0.594,0,0,1,.223.806A0.586,0.586,0,0,1,368.771,993.643Zm50.536-2.622a0.583,0.583,0,0,1-.479-0.25,0.594,0.594,0,0,1,.139-0.825c1.1-.785,2.177-1.629,3.2-2.506a0.584,0.584,0,0,1,.827.069,0.6,0.6,0,0,1-.068.834c-1.053.9-2.158,1.763-3.285,2.569A0.584,0.584,0,0,1,419.307,991.021ZM362,988.967a0.583,0.583,0,0,1-.372-0.134c-1.069-.885-2.111-1.826-3.1-2.8a0.6,0.6,0,0,1-.009-0.837,0.585,0.585,0,0,1,.83-0.01c0.961,0.948,1.978,1.866,3.021,2.729a0.594,0.594,0,0,1,.081.832A0.584,0.584,0,0,1,362,988.967Zm63.565-3.294a0.578,0.578,0,0,1-.413-0.172,0.6,0.6,0,0,1,0-.837c0.948-.962,1.867-1.98,2.731-3.024a0.583,0.583,0,0,1,.826-0.075,0.594,0.594,0,0,1,.075.833c-0.885,1.07-1.827,2.113-2.8,3.1A0.586,0.586,0,0,1,425.566,985.673Zm-69.436-2.486a0.583,0.583,0,0,1-.444-0.206c-0.9-1.053-1.766-2.16-2.575-3.291a0.6,0.6,0,0,1,.133-0.826,0.585,0.585,0,0,1,.82.134c0.789,1.1,1.634,2.183,2.511,3.211a0.594,0.594,0,0,1-.062.834A0.577,0.577,0,0,1,356.13,983.187Zm74.691-3.867a0.581,0.581,0,0,1-.335-0.106,0.6,0.6,0,0,1-.146-0.824c0.77-1.115,1.5-2.276,2.173-3.454a0.586,0.586,0,0,1,.8-0.218,0.594,0.594,0,0,1,.216.808c-0.689,1.208-1.438,2.4-2.228,3.541A0.586,0.586,0,0,1,430.821,979.32Zm-79.486-2.844a0.587,0.587,0,0,1-.5-0.288c-0.706-1.195-1.37-2.436-1.972-3.689a0.594,0.594,0,0,1,.273-0.79,0.585,0.585,0,0,1,.784.275c0.587,1.221,1.234,2.432,1.924,3.6a0.594,0.594,0,0,1-.2.811A0.586,0.586,0,0,1,351.335,976.476Zm83.577-4.33a0.586,0.586,0,0,1-.247-0.054,0.6,0.6,0,0,1-.285-0.786c0.567-1.231,1.087-2.5,1.547-3.781a0.586,0.586,0,0,1,.752-0.355,0.592,0.592,0,0,1,.351.758c-0.471,1.311-1,2.615-1.585,3.877A0.587,0.587,0,0,1,434.912,972.146Zm-87.151-3.112a0.588,0.588,0,0,1-.548-0.382c-0.491-1.3-.93-2.64-1.306-3.979a0.587,0.587,0,1,1,1.129-.322c0.367,1.306.8,2.611,1.274,3.88a0.594,0.594,0,0,1-.34.764A0.569,0.569,0,0,1,347.761,969.034Zm89.945-4.666a0.6,0.6,0,0,1-.151-0.02,0.592,0.592,0,0,1-.417-0.724c0.345-1.308.638-2.651,0.87-3.993a0.587,0.587,0,1,1,1.156.2c-0.238,1.375-.537,2.753-0.891,4.094A0.588,0.588,0,0,1,437.706,964.368Zm-92.18-3.293a0.589,0.589,0,0,1-.576-0.481c-0.257-1.362-.46-2.757-0.6-4.145a0.587,0.587,0,1,1,1.168-.122c0.138,1.356.335,2.717,0.586,4.046a0.591,0.591,0,0,1-.466.692A0.715,0.715,0,0,1,345.526,961.075Zm93.589-4.856a0.435,0.435,0,0,1-.051,0,0.589,0.589,0,0,1-.534-0.64c0.114-1.346.173-2.72,0.173-4.084q0-.756-0.024-1.507a0.59,0.59,0,0,1,.568-0.61,0.577,0.577,0,0,1,.6.573q0.026,0.768.025,1.544c0,1.4-.06,2.806-0.178,4.186A0.587,0.587,0,0,1,439.115,956.219Zm-94.422-3.371a0.589,0.589,0,0,1-.587-0.582q-0.006-.385-0.006-0.771c0-1.137.04-2.286,0.119-3.417a0.586,0.586,0,1,1,1.17.082c-0.076,1.1-.115,2.225-0.115,3.333,0,0.251,0,.5.006,0.754a0.59,0.59,0,0,1-.578.6h-0.009Zm94.268-6.416a0.59,0.59,0,0,1-.582-0.522c-0.159-1.353-.378-2.71-0.65-4.035a0.587,0.587,0,1,1,1.149-.241c0.28,1.358.5,2.75,0.667,4.136a0.59,0.59,0,0,1-.514.657A0.549,0.549,0,0,1,438.961,946.432ZM345.267,944.6a0.582,0.582,0,0,1-.092-0.008,0.59,0.59,0,0,1-.488-0.676c0.215-1.375.493-2.757,0.825-4.108a0.587,0.587,0,0,1,.712-0.432,0.594,0.594,0,0,1,.428.718c-0.325,1.317-.6,2.665-0.806,4.006A0.589,0.589,0,0,1,345.267,944.6Zm92.026-6.264a0.588,0.588,0,0,1-.562-0.421c-0.388-1.3-.838-2.6-1.336-3.86a0.593,0.593,0,0,1,.328-0.769,0.584,0.584,0,0,1,.762.33c0.512,1.292.972,2.624,1.37,3.958a0.591,0.591,0,0,1-.393.736A0.551,0.551,0,0,1,437.293,938.334Zm-90.047-1.762a0.58,0.58,0,0,1-.191-0.032,0.594,0.594,0,0,1-.364-0.752c0.448-1.315.961-2.628,1.523-3.9a0.587,0.587,0,0,1,.775-0.3,0.6,0.6,0,0,1,.3.782c-0.549,1.243-1.049,2.523-1.486,3.805A0.588,0.588,0,0,1,347.246,936.572Zm87.01-5.919a0.586,0.586,0,0,1-.525-0.326c-0.605-1.209-1.271-2.409-1.98-3.567a0.6,0.6,0,0,1,.19-0.814,0.585,0.585,0,0,1,.808.192c0.728,1.186,1.41,2.417,2.031,3.657a0.594,0.594,0,0,1-.261.794A0.567,0.567,0,0,1,434.256,930.653Zm-83.674-1.643a0.574,0.574,0,0,1-.284-0.074,0.594,0.594,0,0,1-.229-0.8c0.668-1.216,1.4-2.418,2.171-3.575a0.585,0.585,0,0,1,.815-0.16,0.593,0.593,0,0,1,.158.821c-0.753,1.128-1.465,2.3-2.117,3.488A0.587,0.587,0,0,1,350.582,929.01Zm79.36-5.392a0.582,0.582,0,0,1-.471-0.238c-0.8-1.086-1.665-2.153-2.561-3.17a0.593,0.593,0,0,1,.049-0.835,0.582,0.582,0,0,1,.828.049c0.919,1.043,1.8,2.136,2.625,3.249a0.6,0.6,0,0,1-.12.829A0.588,0.588,0,0,1,429.942,923.618Zm-74.776-1.47a0.58,0.58,0,0,1-.368-0.131,0.6,0.6,0,0,1-.089-0.833c0.867-1.081,1.792-2.139,2.749-3.144a0.583,0.583,0,0,1,.83-0.016,0.6,0.6,0,0,1,.017.836c-0.935.98-1.837,2.013-2.682,3.068A0.584,0.584,0,0,1,355.166,922.148Zm69.324-4.712a0.589,0.589,0,0,1-.4-0.161c-0.977-.934-2.009-1.836-3.064-2.68a0.6,0.6,0,0,1-.094-0.832,0.583,0.583,0,0,1,.824-0.1c1.082,0.866,2.138,1.79,3.141,2.747a0.594,0.594,0,0,1,.023.836A0.582,0.582,0,0,1,424.49,917.436Zm-63.637-1.253a0.584,0.584,0,0,1-.442-0.2,0.6,0.6,0,0,1,.055-0.835c1.038-.917,2.13-1.8,3.244-2.621a0.583,0.583,0,0,1,.82.127,0.594,0.594,0,0,1-.127.827c-1.086.8-2.151,1.663-3.164,2.557A0.582,0.582,0,0,1,360.853,916.183Zm57.211-3.893a0.577,0.577,0,0,1-.324-0.1c-1.123-.749-2.292-1.459-3.476-2.107a0.6,0.6,0,0,1-.236-0.8,0.587,0.587,0,0,1,.8-0.237c1.213,0.665,2.412,1.392,3.563,2.16a0.6,0.6,0,0,1,.166.82A0.586,0.586,0,0,1,418.064,912.29Zm-50.593-1a0.587,0.587,0,0,1-.5-0.284,0.6,0.6,0,0,1,.2-0.813c1.181-.723,2.406-1.4,3.643-2.017a0.584,0.584,0,0,1,.786.268,0.594,0.594,0,0,1-.266.793c-1.207.6-2.4,1.263-3.553,1.968A0.586,0.586,0,0,1,367.471,911.294Zm43.381-2.954a0.573,0.573,0,0,1-.234-0.05c-1.234-.541-2.508-1.036-3.786-1.466a0.592,0.592,0,0,1,.372-1.123c1.312,0.443,2.618.948,3.883,1.5a0.6,0.6,0,0,1,.3.779A0.588,0.588,0,0,1,410.852,908.34Zm-36.028-.707a0.585,0.585,0,0,1-.546-0.377,0.592,0.592,0,0,1,.333-0.766c1.289-.506,2.613-0.96,3.936-1.35a0.584,0.584,0,0,1,.728.4,0.593,0.593,0,0,1-.4.733c-1.291.379-2.582,0.822-3.838,1.316A0.592,0.592,0,0,1,374.824,907.633Zm28.248-1.921a0.591,0.591,0,0,1-.138-0.016c-1.308-.317-2.647-0.579-3.98-0.78a0.592,0.592,0,0,1,.174-1.171c1.367,0.206,2.739.476,4.08,0.8A0.592,0.592,0,0,1,403.072,905.712Zm-20.373-.4a0.592,0.592,0,0,1-.114-1.172c1.353-.271,2.735-0.486,4.108-0.639a0.592,0.592,0,0,1,.129,1.177c-1.339.148-2.688,0.359-4.008,0.623A0.567,0.567,0,0,1,382.7,905.315Zm12.259-.826h-0.036c-1.346-.084-2.711-0.11-4.055-0.078a0.6,0.6,0,0,1-.6-0.578,0.59,0.59,0,0,1,.573-0.605c1.377-.033,2.777-0.007,4.155.079A0.592,0.592,0,0,1,394.958,904.489Zm-4.735,83.321h-0.029a35.7,35.7,0,0,1-4.149-.448,0.59,0.59,0,0,1-.483-0.68,0.582,0.582,0,0,1,.675-0.487,34.707,34.707,0,0,0,4.014.433A0.592,0.592,0,0,1,390.223,987.81Zm4.1-.032a0.592,0.592,0,0,1-.038-1.183,35.065,35.065,0,0,0,4.006-.5,0.592,0.592,0,0,1,.211,1.165,36.037,36.037,0,0,1-4.14.514Zm-12.19-1.321a0.622,0.622,0,0,1-.163-0.023,35.7,35.7,0,0,1-3.937-1.4,0.593,0.593,0,0,1-.313-0.775,0.585,0.585,0,0,1,.768-0.317A34.464,34.464,0,0,0,382.3,985.3,0.593,0.593,0,0,1,382.137,986.457Zm20.252-.165a0.592,0.592,0,0,1-.171-1.157A34.984,34.984,0,0,0,406,983.719a0.583,0.583,0,0,1,.773.3,0.593,0.593,0,0,1-.3.779,35.871,35.871,0,0,1-3.913,1.464A0.57,0.57,0,0,1,402.389,986.292Zm-27.814-3.035a0.582,0.582,0,0,1-.288-0.077,36.1,36.1,0,0,1-3.51-2.277,0.594,0.594,0,0,1-.129-0.826,0.583,0.583,0,0,1,.82-0.13,35.365,35.365,0,0,0,3.4,2.2,0.6,0.6,0,0,1,.223.806A0.586,0.586,0,0,1,374.575,983.257Zm35.318-.285a0.588,0.588,0,0,1-.507-0.293,0.594,0.594,0,0,1,.21-0.809,34.982,34.982,0,0,0,3.359-2.256,0.582,0.582,0,0,1,.822.117,0.593,0.593,0,0,1-.116.828,36.023,36.023,0,0,1-3.472,2.331A0.571,0.571,0,0,1,409.893,982.972Zm-41.944-4.581a0.582,0.582,0,0,1-.4-0.157,36.463,36.463,0,0,1-2.9-3.024,0.594,0.594,0,0,1,.061-0.834,0.582,0.582,0,0,1,.828.063,35.7,35.7,0,0,0,2.806,2.925,0.594,0.594,0,0,1,.034.836A0.581,0.581,0,0,1,367.949,978.391ZM416.44,978a0.579,0.579,0,0,1-.425-0.184,0.594,0.594,0,0,1,.021-0.836,35.444,35.444,0,0,0,2.761-2.971,0.583,0.583,0,0,1,.826-0.075,0.594,0.594,0,0,1,.075.833,36.837,36.837,0,0,1-2.853,3.071A0.586,0.586,0,0,1,416.44,978ZM362.6,972.13a0.588,0.588,0,0,1-.487-0.259,36.793,36.793,0,0,1-2.137-3.612,0.6,0.6,0,0,1,.25-0.8,0.585,0.585,0,0,1,.791.252,35.638,35.638,0,0,0,2.068,3.5,0.593,0.593,0,0,1-.157.821A0.579,0.579,0,0,1,362.6,972.13Zm59.09-.474a0.577,0.577,0,0,1-.321-0.1,0.594,0.594,0,0,1-.17-0.819,35.334,35.334,0,0,0,2.013-3.53,0.584,0.584,0,0,1,.788-0.264,0.594,0.594,0,0,1,.262.794,36.578,36.578,0,0,1-2.081,3.648A0.584,0.584,0,0,1,421.691,971.656ZM358.817,964.8a0.587,0.587,0,0,1-.549-0.381,36.653,36.653,0,0,1-1.254-4.013,0.587,0.587,0,1,1,1.138-.29A35.415,35.415,0,0,0,359.365,964a0.591,0.591,0,0,1-.34.763A0.564,0.564,0,0,1,358.817,964.8Zm66.541-.539a0.581,0.581,0,0,1-.2-0.035,0.593,0.593,0,0,1-.352-0.758,35.169,35.169,0,0,0,1.151-3.9,0.587,0.587,0,1,1,1.143.27,36.364,36.364,0,0,1-1.19,4.035A0.589,0.589,0,0,1,425.358,964.262Zm-68.546-7.474a0.588,0.588,0,0,1-.581-0.514,36.944,36.944,0,0,1-.3-4.194,0.59,0.59,0,0,1,.578-0.6h0.009a0.59,0.59,0,0,1,.587.583,35.474,35.474,0,0,0,.294,4.058,0.591,0.591,0,0,1-.5.664A0.691,0.691,0,0,1,356.812,956.788Zm70.422-.572-0.067,0a0.591,0.591,0,0,1-.516-0.655,36.278,36.278,0,0,0,.23-4.065c0-.381-0.006-0.761-0.018-1.137a0.587,0.587,0,1,1,1.173-.038c0.013,0.391.019,0.782,0.018,1.176a37.477,37.477,0,0,1-.237,4.2A0.589,0.589,0,0,1,427.234,956.216Zm-70.551-7.688-0.059,0a0.591,0.591,0,0,1-.526-0.647,36.881,36.881,0,0,1,.65-4.156,0.587,0.587,0,1,1,1.147.252,35.606,35.606,0,0,0-.629,4.02A0.589,0.589,0,0,1,356.683,948.528Zm70.4-1.722a0.589,0.589,0,0,1-.581-0.5,35.332,35.332,0,0,0-.821-3.985,0.591,0.591,0,0,1,.414-0.725,0.585,0.585,0,0,1,.719.417,36.577,36.577,0,0,1,.85,4.12,0.591,0.591,0,0,1-.5.671A0.633,0.633,0,0,1,427.084,946.806Zm-68.656-6.354a0.58,0.58,0,0,1-.191-0.032,0.592,0.592,0,0,1-.364-0.752,36.439,36.439,0,0,1,1.585-3.895,0.583,0.583,0,0,1,.783-0.277,0.6,0.6,0,0,1,.275.79,35.3,35.3,0,0,0-1.534,3.767A0.588,0.588,0,0,1,358.428,940.452Zm66.523-1.623a0.588,0.588,0,0,1-.545-0.373,35.122,35.122,0,0,0-1.711-3.683,0.594,0.594,0,0,1,.237-0.8,0.585,0.585,0,0,1,.8.238,36.5,36.5,0,0,1,1.768,3.808,0.592,0.592,0,0,1-.327.769A0.576,0.576,0,0,1,424.951,938.829ZM361.976,933a0.578,0.578,0,0,1-.313-0.092,0.594,0.594,0,0,1-.183-0.816,36.356,36.356,0,0,1,2.43-3.421,0.583,0.583,0,0,1,.825-0.089,0.6,0.6,0,0,1,.089.832,35.26,35.26,0,0,0-2.352,3.31A0.583,0.583,0,0,1,361.976,933Zm59.077-1.436a0.583,0.583,0,0,1-.481-0.252,35.61,35.61,0,0,0-2.506-3.192,0.6,0.6,0,0,1,.048-0.834,0.583,0.583,0,0,1,.829.048,36.372,36.372,0,0,1,2.589,3.3,0.593,0.593,0,0,1-.143.823A0.572,0.572,0,0,1,421.053,931.564Zm-53.928-5a0.583,0.583,0,0,1-.418-0.177,0.6,0.6,0,0,1,.006-0.837,36.633,36.633,0,0,1,3.14-2.771,0.584,0.584,0,0,1,.824.1,0.6,0.6,0,0,1-.1.831,35.233,35.233,0,0,0-3.037,2.681A0.587,0.587,0,0,1,367.125,926.568Zm48.48-1.178a0.58,0.58,0,0,1-.391-0.15,35.539,35.539,0,0,0-3.163-2.533,0.593,0.593,0,0,1-.142-0.823,0.584,0.584,0,0,1,.818-0.144A36.6,36.6,0,0,1,416,924.357a0.594,0.594,0,0,1,.048.835A0.581,0.581,0,0,1,415.605,925.39Zm-42.012-3.9a0.583,0.583,0,0,1-.5-0.285,0.594,0.594,0,0,1,.2-0.812,36.1,36.1,0,0,1,3.684-1.973,0.587,0.587,0,0,1,.778.292,0.594,0.594,0,0,1-.288.785,34.539,34.539,0,0,0-3.564,1.907A0.588,0.588,0,0,1,373.593,921.493Zm35.307-.86a0.569,0.569,0,0,1-.28-0.073,34.636,34.636,0,0,0-3.655-1.731,0.594,0.594,0,0,1-.326-0.77,0.584,0.584,0,0,1,.763-0.329,36.014,36.014,0,0,1,3.779,1.791,0.594,0.594,0,0,1,.235.8A0.586,0.586,0,0,1,408.9,920.633Zm-27.858-2.582a0.592,0.592,0,0,1-.181-1.155,35.516,35.516,0,0,1,4.038-1.061,0.591,0.591,0,0,1,.229,1.16,34.55,34.55,0,0,0-3.9,1.027A0.575,0.575,0,0,1,381.042,918.051Zm20.248-.494a0.6,0.6,0,0,1-.155-0.021,34.79,34.79,0,0,0-3.951-.834,0.591,0.591,0,0,1,.174-1.17,35.889,35.889,0,0,1,4.085.862A0.592,0.592,0,0,1,401.29,917.557Zm-12.212-1.123a0.592,0.592,0,0,1-.047-1.181c0.976-.081,1.967-0.121,2.947-0.121,0.424-.009.818,0.006,1.225,0.02a0.591,0.591,0,0,1,.566.612,0.585,0.585,0,0,1-.605.571c-0.394-.013-0.771-0.008-1.186-0.02-0.948,0-1.908.04-2.852,0.117Z" transform="translate(-332 -891)"/>
</svg>
