<svg xmlns="http://www.w3.org/2000/svg" width="1920" height="744.03" viewBox="0 0 1920 744.03">
  <metadata><?xpacket begin="﻿" id="W5M0MpCehiHzreSzNTczkc9d"?>
<x:xmpmeta xmlns:x="adobe:ns:meta/" x:xmptk="Adobe XMP Core 5.6-c138 79.159824, 2016/09/14-01:09:01        ">
   <rdf:RDF xmlns:rdf="http://www.w3.org/1999/02/22-rdf-syntax-ns#">
      <rdf:Description rdf:about=""/>
   </rdf:RDF>
</x:xmpmeta>
                                                                                                    
                                                                                                    
                                                                                                    
                                                                                                    
                                                                                                    
                                                                                                    
                                                                                                    
                                                                                                    
                                                                                                    
                                                                                                    
                                                                                                    
                                                                                                    
                                                                                                    
                                                                                                    
                                                                                                    
                                                                                                    
                                                                                                    
                                                                                                    
                                                                                                    
                                                                                                    
                           
<?xpacket end="w"?></metadata>
<defs>
    <style>
      .cls-1 {
        fill: #ededed;
        fill-rule: evenodd;
      }
    </style>
  </defs>
  <path id="Pattern" class="cls-1" d="M58.046,2314.18l-1.67-1.58,1.813,1.39,5.19-6.71,30.49-28.82,30.631,28.98,4.26,5.53,48.615-45.99h2.206l-49.889,47.2,0.744,0.96-36.567-34.6-36.57,34.6Zm-49.888-47.2h2.205l46.6,44.09-0.932,1.2Zm85.711,80.85-73.438,69.48L19.5,2416.1l74.369-70.36,74.369,70.36-0.931,1.21ZM79.595,2493.81l14.274-13.5,14.274,13.5-0.931,1.21-13.343-12.63-13.343,12.63Zm-30.047-38.85,44.321-41.94,44.322,41.94-0.931,1.2-43.391-41.05L50.48,2456.16Zm44.321-6.21L65.5,2475.59l-0.932-1.21,29.3-27.72,29.3,27.72-0.931,1.21Zm0-134.56L5.407,2397.88l-0.932-1.21,89.393-84.57,89.393,84.57-0.933,1.21Zm21.878-22.55,26.07-24.66h2.206l-27.344,25.87Zm-15.025-19.43,5.536-5.23h2.207l-6.809,6.44Zm89.384,52.09-28.354,26.83-0.932-1.21,29.2-27.63,0.014,0.02,0.084-.08,29.271,27.69-0.933,1.21Zm-74.359,216.26,74.359-70.35,74.357,70.35-0.932,1.21-73.425-69.47-73.427,69.47Zm-15.024-19.43,89.383-84.56,89.381,84.56-0.932,1.21-88.449-83.68-88.45,83.68ZM-1,2359.24v-2.09l12.9,12.2-0.933,1.21Zm0-67.28v-2.09l42.941,40.63-0.932,1.2Zm0,33.64v-2.09l27.919,26.41-0.933,1.21Zm80.273-58.62H81.48l5.535,5.23-0.932,1.21Zm-35.559,0h2.206l26.068,24.66-0.931,1.21ZM-1,2439.95v-2.09l88.015,83.27-0.932,1.21Zm0,33.64v-2.09l72.989,69.06-0.931,1.21Zm251.519-159.41-1.672-1.59,1.815,1.4,5.191-6.71,30.49-28.82,30.631,28.98,4.26,5.53,48.615-45.99h2.206l-49.889,47.2,0.744,0.96-36.567-34.6-36.573,34.6Zm-49.888-47.2h2.206l46.6,44.09-0.932,1.2Zm85.712,80.85-73.438,69.48-0.931-1.21,74.369-70.36,74.369,70.36-0.933,1.21Zm-14.274,145.98,14.274-13.5,14.273,13.5-0.932,1.21-13.341-12.63L273,2495.02Zm14.274-78.7-43.391,41.05-0.932-1.2,44.323-41.94,44.322,41.94-0.933,1.2Zm-29.3,59.27,29.3-27.72,29.3,27.72-0.932,1.21-28.366-26.84-28.367,26.84Zm29.3-160.19-88.462,83.69-0.931-1.21,89.393-84.57,89.393,84.57-0.933,1.21Zm21.878-22.55,26.069-24.66H336.5l-27.343,25.87ZM293.2,2272.21l5.536-5.23h2.207l-6.81,6.44Zm89.384,52.09-28.355,26.83-0.931-1.21,29.26-27.68,0.072,0.07,0.025-.03,29.215,27.64-0.933,1.21Zm-74.359,216.26,74.358-70.35,74.358,70.35-0.932,1.21L382.58,2472.3l-73.427,69.47ZM293.2,2521.13l89.382-84.56,89.381,84.56-0.929,1.21-88.451-83.68-88.451,83.68ZM175.844,2369.35l14.262-13.49,14.262,13.49-0.932,1.21-13.33-12.61-13.33,12.61ZM145.8,2330.5l44.225-41.85,0.016,0.02,0.085-.08,44.293,41.91-0.932,1.2-43.377-41.04-43.379,41.04Zm125.951-63.52h2.2l5.535,5.23-0.932,1.21Zm-35.559,0H238.4l26.068,24.66-0.932,1.21Zm206.8,47.2-1.675-1.59,1.818,1.4,5.192-6.71,30.489-28.82,30.633,28.98,4.26,5.53,48.614-45.99h2.206l-49.889,47.2,0.749,0.96-36.573-34.6-36.575,34.61Zm-49.887-47.2h2.206l46.6,44.09-0.931,1.2Zm85.711,80.85-73.437,69.48-0.932-1.21,74.369-70.36,74.371,70.36-0.935,1.21Zm0,134.56-13.342,12.63-0.932-1.21,14.274-13.5,14.275,13.5-0.932,1.21Zm0-67.28-43.39,41.05-0.932-1.2,44.322-41.94,44.323,41.94-0.932,1.2Zm-29.3,59.27,29.3-27.72,29.3,27.72-0.929,1.21-28.368-26.84-28.365,26.84Zm-60.1-77.71,89.393-84.57,89.394,84.57-0.932,1.21-88.462-83.69-88.46,83.69Zm111.272-105.03,26.068-24.66h2.208l-27.344,25.87Zm-15.023-19.43,5.534-5.23h2.208l-6.81,6.44Zm89.383,52.09L546.7,2351.13l-0.932-1.21,29.287-27.7,29.286,27.7-0.935,1.21Zm-74.36,216.26,74.357-70.35,74.36,70.35-0.932,1.21-73.425-69.47-73.428,69.47Zm74.36-101.9L486.6,2522.34l-0.932-1.21,89.383-84.56,89.38,84.56-0.932,1.21ZM382.58,2357.95l-13.332,12.61-0.93-1.21,14.262-13.49,14.262,13.49-0.932,1.21Zm-44.311-27.45,44.284-41.9,0.073,0.07,0.026-.03,44.237,41.86-0.932,1.2-43.377-41.04L339.2,2331.7Zm125.952-63.52h2.2l5.534,5.23-0.929,1.21Zm-35.56,0h2.208l26.068,24.66-0.932,1.21Zm206.8,47.2-1.675-1.59,1.818,1.4,5.189-6.71,30.492-28.82,30.633,28.98,4.26,5.53,48.614-45.99H757l-49.889,47.2,0.749,0.96-36.573-34.6-36.575,34.61Zm-49.888-47.2h2.208l46.6,44.09-0.931,1.2Zm85.712,80.85-73.436,69.48-0.932-1.21,74.368-70.36,74.371,70.36-0.934,1.21Zm0,134.56-13.342,12.63-0.932-1.21,14.274-13.5,14.274,13.5-0.931,1.21Zm-44.322-27.43,44.322-41.94,44.323,41.94-0.932,1.2-43.391-41.05-43.39,41.05Zm15.025,19.42,29.3-27.72,29.3,27.72-0.931,1.21-28.366-26.84-28.365,26.84Zm29.3-160.19-88.461,83.69-0.932-1.21,89.393-84.57,89.394,84.57-0.932,1.21Zm21.879-22.55,26.068-24.66h2.208L694.1,2292.85Zm-15.023-19.43,5.534-5.23h2.208l-6.81,6.44Zm89.383,52.09-28.355,26.83-0.932-1.21,29.287-27.7,29.283,27.7-0.932,1.21Zm-74.36,216.26,74.357-70.35,74.357,70.35-0.929,1.21-73.425-69.47L694.1,2541.77Zm74.36-101.9-88.451,83.68-0.932-1.21,89.38-84.56,89.382,84.56-0.931,1.21ZM560.79,2369.35l14.264-13.49,14.261,13.49-0.932,1.21-13.329-12.61-13.332,12.61Zm-30.048-38.85,44.312-41.93,44.308,41.93-0.931,1.2-43.377-41.04-43.38,41.04Zm125.95-63.52H658.9l5.534,5.23-0.932,1.21Zm-35.558,0h2.206l26.071,24.66-0.932,1.21Zm206.8,47.2-1.675-1.59,1.818,1.4,5.189-6.71,30.492-28.82,30.633,28.98,4.26,5.53,48.614-45.99h2.205l-49.888,47.2,0.749,0.96-36.573-34.6-36.575,34.61Zm-49.888-47.2h2.2l46.6,44.09-0.931,1.2Zm85.712,80.85-73.439,69.48-0.931-1.21,74.37-70.36,74.371,70.36-0.935,1.21Zm0,134.56-13.342,12.63-0.932-1.21,14.274-13.5,14.274,13.5-0.931,1.21Zm0-67.28-43.391,41.05-0.931-1.2,44.322-41.94,44.323,41.94-0.932,1.2Zm-29.3,59.27,29.3-27.72,29.3,27.72-0.932,1.21-28.365-26.84L835.4,2475.59Zm29.3-160.19L775.3,2397.88l-0.931-1.21,89.393-84.57,89.394,84.57-0.932,1.21Zm21.879-22.55,26.068-24.66h2.208l-27.345,25.87Zm-15.023-19.43,5.533-5.23h2.208l-6.809,6.44ZM960,2324.3l-28.355,26.83-0.929-1.21L960,2322.22l29.284,27.7-0.932,1.21Zm-74.357,216.26L960,2470.21l74.361,70.35-0.94,1.21L960,2472.3l-73.426,69.47ZM960,2438.66l-88.448,83.68-0.932-1.21L960,2436.57l89.381,84.56-0.93,1.21Zm-206.735-69.31,14.264-13.49,14.26,13.49-0.931,1.21-13.329-12.61L754.2,2370.56Zm-30.048-38.85,44.309-41.93,44.311,41.93-0.931,1.2-43.377-41.04-43.38,41.04Zm125.95-63.52h2.208l5.533,5.23-0.931,1.21Zm-35.558,0h2.206l26.068,24.66-0.929,1.2Zm206.8,47.2-1.67-1.59,1.82,1.4,5.18-6.71,30.5-28.82,30.63,28.98,4.26,5.53,48.61-45.99h2.21l-49.89,47.2,0.75,0.96-36.57-34.6-36.58,34.61Zm-49.885-47.2h2.205l46.6,44.09-0.93,1.2Zm11.341,149.12,74.374-70.36,74.36,70.36-0.93,1.21-73.43-69.48L982.8,2417.31Zm74.374,66.29-13.35,12.63-0.93-1.21,14.28-13.5,14.27,13.5-0.93,1.21Zm-44.33-27.43,44.33-41.94,44.32,41.94-0.93,1.2-43.39-41.05-43.39,41.05Zm15.03,19.42,29.3-27.72,29.29,27.72-0.93,1.21-28.36-26.84-28.37,26.84Zm29.3-160.19-88.465,83.69-0.932-1.21,89.4-84.57,89.39,84.57-0.93,1.21Zm21.88-22.55,26.06-24.66h2.21l-27.34,25.87Zm-15.03-19.43,5.54-5.23h2.2l-6.81,6.44Zm89.38,52.09-28.35,26.83-0.93-1.21,29.28-27.7,29.29,27.7-0.93,1.21Zm-74.35,216.26,74.35-70.35,74.36,70.35-0.93,1.21-73.43-69.47-73.42,69.47Zm74.35-101.9-88.45,83.68-0.93-1.21,89.38-84.56,89.39,84.56-0.94,1.21Zm-206.732-69.31L960,2355.86l14.261,13.49-0.932,1.21L960,2357.95l-13.329,12.61ZM915.69,2330.5L960,2288.57l44.311,41.93-0.93,1.2L960,2290.66l-43.377,41.04Zm125.95-63.52h2.21l5.53,5.23-0.93,1.21Zm-35.56,0h2.21l26.07,24.66-0.94,1.21Zm206.81,47.2-49.89-47.2h2.2l48.62,45.99,4.4-5.69,30.49-28.82,30.63,28.98,4.26,5.53,48.62-45.99h2.2l-49.89,47.2,0.74,0.95-36.56-34.59-36.57,34.61Zm-38.55,101.92,74.37-70.36,74.37,70.36-0.93,1.21-73.44-69.48-73.44,69.48Zm60.1,77.71,14.27-13.5,14.27,13.5-0.93,1.21-13.34-12.63-13.34,12.63Zm14.27-78.7-43.39,41.05-0.93-1.2,44.32-41.94,44.32,41.94-0.93,1.2Zm-29.3,59.27,29.3-27.72,29.3,27.72-0.93,1.21-28.37-26.84-28.37,26.84Zm29.3-160.19-88.46,83.69-0.93-1.21,89.39-84.57,89.39,84.57-0.93,1.21Zm21.88-22.55,26.07-24.66h2.2l-27.34,25.87Zm-15.03-19.43,5.54-5.23h2.21l-6.81,6.44Zm89.39,52.09-28.36,26.83-0.93-1.21,29.2-27.63,0.08,0.09,0.08-.1,29.21,27.64-0.93,1.21Zm-74.36,216.26,74.33-70.33,0.02,0.02,0.02-.02,74.34,70.33-0.93,1.21-73.42-69.47-73.43,69.47Zm74.36-101.9-88.45,83.68-0.94-1.21,89.36-84.54,0.02,0.02,0.02-.03,89.37,84.55-0.93,1.21Zm-206.74-69.31,14.27-13.49,14.26,13.49-0.94,1.21-13.33-12.61-13.33,12.61Zm14.26-78.69-43.37,41.04-0.94-1.2,44.31-41.93,44.31,41.93-0.93,1.2Zm81.64-23.68h2.21l5.54,5.23-0.94,1.21Zm-35.55,0h2.2l26.07,24.66-0.93,1.21Zm242.62,13.56-36.56,34.6,0.74-.96-49.89-47.2h2.21l48.61,45.99,4.4-5.69,30.49-28.82,30.64,28.98,4.25,5.53,48.62-45.99h2.21l-49.89,47.2,0.74,0.96Zm0,67.29-73.43,69.48-0.94-1.21,74.37-70.36,74.37,70.36-0.93,1.21Zm0,134.56-13.34,12.63-0.93-1.21,14.27-13.5,14.28,13.5-0.94,1.21Zm0-67.28-43.39,41.05-0.93-1.2,44.32-41.94,44.32,41.94-0.93,1.2Zm0,33.64-28.36,26.84-0.93-1.21,29.29-27.72,29.3,27.72-0.93,1.21Zm0-134.56-88.46,83.69-0.93-1.21,89.39-84.57,89.4,84.57-0.94,1.21Zm21.88-22.55,26.07-24.66h2.21l-27.35,25.86Zm-15.02-19.43,5.53-5.23h2.21l-6.81,6.44Zm89.38,52.09-28.35,26.83-0.94-1.21,29.21-27.63,0.07,0.09,0.08-.1,29.22,27.64-0.94,1.21Zm0,148-73.43,69.47-0.93-1.21,74.34-70.33,0.01,0.02,0.02-.02,74.35,70.33-0.93,1.21Zm0-33.64-88.45,83.68-0.93-1.21,89.36-84.54,0.01,0.02,0.02-.03,89.37,84.55-0.93,1.21Zm-206.73-69.31,14.23-13.47,0.02,0.02,0.02-.03,14.25,13.48-0.93,1.21-13.33-12.61-13.33,12.61Zm14.26-78.69-43.38,41.04-0.93-1.2,44.22-41.85,0.08,0.09,0.08-.1,44.24,41.86-0.94,1.2Zm81.64-23.68h2.2l5.54,5.23-0.93,1.21Zm-35.56,0h2.21l26.06,24.66-0.93,1.21ZM93.869,2596.75l-73.438,69.48-0.932-1.21,74.369-70.36,74.369,70.36-0.931,1.21ZM79.595,2742.73l14.274-13.5,14.274,13.5-0.931,1.21-13.343-12.63-13.343,12.63Zm-30.047-38.85,44.321-41.94,44.322,41.94-0.931,1.2-43.391-41.05L50.48,2705.08Zm44.321-6.21L65.5,2724.51l-0.932-1.21,29.3-27.72,29.3,27.72-0.931,1.21Zm0-134.56L5.407,2646.8l-0.932-1.21,89.393-84.57,89.393,84.57-0.933,1.21Zm96.237,43.76-13.33,12.61-0.932-1.21,14.262-13.49,14.262,13.49-0.932,1.21Zm0-67.29-43.379,41.04-0.931-1.2,44.31-41.93,44.309,41.93-0.932,1.2Zm0,33.64-28.354,26.83-0.932-1.21,29.286-27.7,29.286,27.7-0.933,1.21Zm-74.359,216.26,74.359-70.35,74.357,70.35-0.932,1.21-73.425-69.47-73.427,69.47Zm-15.025-19.43,89.384-84.56,89.381,84.56-0.932,1.21-88.449-83.68-88.45,83.68ZM-1,2608.16v-2.09l12.9,12.2-0.933,1.21Zm0-67.28v-2.09l42.941,40.63-0.932,1.2Zm0,33.64v-2.09l27.918,26.41-0.931,1.21Zm0,114.35v-2.09l88.015,83.27-0.932,1.21Zm0,33.64v-2.09l72.989,69.06-0.931,1.21Zm287.343-125.76-73.438,69.48-0.931-1.21,74.369-70.36,74.369,70.36-0.933,1.21Zm-14.274,145.98,14.274-13.5,14.273,13.5-0.932,1.21-13.341-12.63L273,2743.94Zm14.274-78.7-43.391,41.05-0.932-1.2,44.323-41.94,44.322,41.94-0.933,1.2Zm-29.3,59.27,29.3-27.72,29.3,27.72-0.932,1.21-28.366-26.84-28.367,26.84Zm29.3-160.19-88.462,83.69-0.931-1.21,89.393-84.57,89.393,84.57-0.933,1.21Zm96.237,43.76-13.332,12.61-0.932-1.21,14.264-13.49,14.262,13.49-0.932,1.21Zm0-67.29L339.2,2580.62l-0.932-1.2,44.311-41.93,44.309,41.93-0.932,1.2Zm0,33.64-28.355,26.83-0.931-1.21,29.286-27.7,29.286,27.7-0.933,1.21Zm-74.359,216.26,74.358-70.35,74.358,70.35-0.932,1.21-73.425-69.47-73.427,69.47ZM293.2,2770.05l89.383-84.56,89.381,84.56-0.929,1.21-88.451-83.68-88.451,83.68Zm185.619-173.3-73.437,69.48-0.932-1.21,74.369-70.36,74.371,70.36-0.935,1.21Zm0,134.56-13.342,12.63-0.932-1.21,14.274-13.5,14.275,13.5-0.932,1.21Zm0-67.28-43.39,41.05-0.932-1.2,44.322-41.94,44.323,41.94-0.932,1.2Zm-29.3,59.27,29.3-27.72,29.3,27.72-0.929,1.21-28.368-26.84-28.365,26.84Zm-60.1-77.71,89.393-84.57,89.394,84.57-0.932,1.21-88.462-83.69-88.46,83.69Zm171.368-27.32,14.264-13.49,14.261,13.49-0.932,1.21-13.329-12.61-13.332,12.61Zm14.264-78.69-43.38,41.04-0.932-1.2,44.312-41.93,44.308,41.93-0.931,1.2Zm0,33.64L546.7,2600.05l-0.932-1.21,29.287-27.7,29.286,27.7-0.935,1.21Zm-74.36,216.26,74.357-70.35,74.36,70.35-0.932,1.21-73.425-69.47-73.428,69.47Zm-15.023-19.43,89.383-84.56,89.38,84.56-0.932,1.21-88.448-83.68L486.6,2771.26Zm185.618-173.3-73.436,69.48-0.932-1.21,74.368-70.36,74.371,70.36-0.934,1.21Zm0,134.56-13.342,12.63-0.932-1.21,14.274-13.5,14.274,13.5-0.931,1.21Zm-44.322-27.43,44.322-41.94,44.323,41.94-0.932,1.2-43.391-41.05-43.39,41.05Zm15.025,19.42,29.3-27.72,29.3,27.72-0.931,1.21-28.366-26.84-28.365,26.84Zm29.3-160.19-88.461,83.69-0.932-1.21,89.393-84.57,89.394,84.57-0.932,1.21Zm81.975,55.16,14.261-13.49,14.263,13.49-0.931,1.21-13.329-12.61L754.2,2619.48Zm14.264-78.69-43.38,41.04-0.932-1.2,44.309-41.93,44.311,41.93-0.931,1.2Zm0,33.64-28.355,26.83-0.932-1.21,29.287-27.7,29.283,27.7-0.932,1.21Zm-74.36,216.26,74.357-70.35,74.357,70.35-0.929,1.2-73.425-69.46L694.1,2790.69Zm-15.023-19.43,89.38-84.56,89.382,84.56-0.931,1.21-88.448-83.68-88.451,83.68Zm185.618-173.3-73.439,69.48-0.931-1.21,74.37-70.36,74.371,70.36-0.935,1.21Zm0,134.56-13.342,12.63-0.932-1.21,14.274-13.5,14.274,13.5-0.931,1.21Zm0-67.28-43.391,41.05-0.931-1.2,44.322-41.94,44.323,41.94-0.932,1.2Zm-29.3,59.27,29.3-27.72,29.3,27.72-0.932,1.21-28.365-26.84L835.4,2724.51Zm29.3-160.19L775.3,2646.8l-0.931-1.21,89.393-84.57,89.394,84.57-0.932,1.21ZM960,2606.87l-13.329,12.61-0.932-1.21L960,2604.78l14.261,13.49-0.932,1.21Zm0-67.29-43.377,41.04-0.932-1.2L960,2537.49l44.311,41.93-0.93,1.2Zm0,33.64-28.355,26.83-0.929-1.21L960,2571.14l29.284,27.7-0.932,1.21Zm-74.357,216.26L960,2719.13l74.361,70.35-0.94,1.21L960,2721.22l-73.426,69.47Zm-15.023-19.43L960,2685.49l89.381,84.56-0.93,1.21L960,2687.58l-88.448,83.68Zm111.247-105.03,74.374-70.36,74.36,70.36-0.93,1.21-73.43-69.48L982.8,2666.23Zm74.374,66.29-13.35,12.63-0.93-1.21,14.28-13.5,14.27,13.5-0.93,1.21Zm-44.33-27.43,44.33-41.94,44.32,41.94-0.93,1.2-43.39-41.05-43.39,41.05Zm15.03,19.42,29.3-27.72,29.29,27.72-0.93,1.21-28.36-26.84-28.37,26.84Zm29.3-160.19-88.465,83.69-0.932-1.21,89.4-84.57,89.39,84.57-0.93,1.21Zm96.23,43.76-13.33,12.61-0.93-1.21,14.26-13.49,14.27,13.49-0.94,1.21Zm0-67.29-43.37,41.04-0.94-1.2,44.31-41.93,44.31,41.93-0.93,1.2Zm0,33.64-28.35,26.83-0.93-1.21,29.28-27.7,29.29,27.7-0.93,1.21Zm-74.35,216.26,74.35-70.35,74.36,70.35-0.93,1.21-73.43-69.47-73.42,69.47Zm-15.03-19.43,89.38-84.56,89.39,84.56-0.94,1.21-88.45-83.68-88.45,83.68Zm111.25-105.03,74.37-70.36,74.37,70.36-0.93,1.21-73.44-69.48-73.44,69.48Zm60.1,77.71,14.27-13.5,14.27,13.5-0.93,1.21-13.34-12.63-13.34,12.63Zm14.27-78.7-43.39,41.05-0.93-1.2,44.32-41.94,44.32,41.94-0.93,1.2Zm-29.3,59.27,29.3-27.72,29.3,27.72-0.93,1.21-28.37-26.84-28.37,26.84Zm29.3-160.19-88.46,83.69-0.93-1.21,89.39-84.57,89.39,84.57-0.93,1.21Zm96.24,43.76-13.33,12.61-0.93-1.21,14.23-13.47,0.02,0.02,0.02-.03,14.25,13.48-0.93,1.21Zm0-67.29-43.38,41.04-0.93-1.2,44.28-41.9,0.02,0.01,0.02-.02,44.3,41.91-0.94,1.2Zm0,33.64-28.36,26.83-0.93-1.21,29.26-27.68,0.02,0.01,0.02-.02,29.27,27.69-0.93,1.21Zm-74.36,216.26,74.33-70.33,0.02,0.02,0.02-.03,74.34,70.34-0.93,1.21-73.42-69.47-73.43,69.47Zm-15.03-19.43,89.36-84.54,0.02,0.02,0.02-.03,89.37,84.55-0.93,1.21-88.45-83.68-88.45,83.68Zm185.62-173.3-73.43,69.48-0.94-1.21,74.37-70.36,74.37,70.36-0.93,1.21Zm0,134.56-13.34,12.63-0.93-1.21,14.27-13.5,14.28,13.5-0.94,1.21Zm0-67.28-43.39,41.05-0.93-1.2,44.32-41.94,44.32,41.94-0.93,1.2Zm0,33.64-28.36,26.84-0.93-1.21,29.29-27.72,29.3,27.72-0.93,1.21Zm0-134.56-88.46,83.69-0.93-1.21,89.39-84.57,89.4,84.57-0.94,1.21Zm96.24,43.76-13.33,12.61-0.93-1.21,14.24-13.47,0.01,0.02,0.02-.03,14.25,13.48-0.93,1.21Zm0-67.29-43.38,41.04-0.93-1.2,44.29-41.9,0.01,0.01,0.02-.02,44.3,41.91-0.93,1.2Zm0,33.64-28.35,26.83-0.94-1.21,29.27-27.68,0.01,0.01,0.02-.02,29.28,27.69-0.94,1.21Zm0,148-73.43,69.46-0.93-1.2,74.34-70.33,0.01,0.02,0.02-.03,74.35,70.34-0.93,1.21Zm-89.38,48.83,89.36-84.54,0.01,0.02,0.02-.03,89.37,84.55-0.93,1.21-88.45-83.68-88.45,83.68ZM93.869,2845.67l-73.438,69.48-0.932-1.21,74.369-70.36,74.369,70.36-0.931,1.21ZM79.595,2991.65l14.274-13.5,14.274,13.5-0.931,1.21-13.343-12.63-13.343,12.63ZM49.548,2952.8l44.321-41.94,44.322,41.94-0.931,1.2-43.391-41.05L50.48,2954Zm44.321-6.21L65.5,2973.43l-0.932-1.21,29.3-27.72,29.3,27.72-0.931,1.21Zm0-134.56L5.407,2895.72l-0.932-1.21,89.393-84.57,89.393,84.57-0.933,1.21Zm81.975,55.16,14.262-13.49,14.262,13.49-0.932,1.21-13.33-12.61-13.33,12.61ZM145.8,2828.34l44.225-41.85,0.016,0.02,0.085-.08,44.293,41.91-0.932,1.2-43.377-41.04-43.379,41.04Zm44.31-6.2-28.354,26.83-0.932-1.21,29.2-27.63,0.014,0.02,0.084-.08,29.271,27.69-0.933,1.21Zm43.173,188.85-43.173-40.85-43.173,40.85h-2.208l45.381-42.94,45.379,42.94h-2.206Zm-35.558,0-7.615-7.21-7.615,7.21h-2.207l9.822-9.3,9.822,9.3h-2.207Zm71.116,0-78.731-74.49-78.732,74.49h-2.206l80.938-76.58,80.938,76.58h-2.207ZM-1,2857.08v-2.09l12.9,12.2-0.933,1.21Zm0-67.28v-2.09l42.941,40.63-0.932,1.2Zm0,33.64v-2.09l27.919,26.41-0.933,1.21Zm77.364,187.55L-1,2937.79v-2.09l79.57,75.29H76.364Zm-71.116,0L-1,3005.07v-2.08l8.455,8H5.247Zm35.557,0L-1,2971.43v-2.09l44.013,41.65H40.8Zm245.538-165.32-73.438,69.48-0.931-1.21,74.369-70.36,74.369,70.36-0.933,1.21Zm-14.274,145.98,14.274-13.5,14.273,13.5-0.932,1.21-13.341-12.63L273,2992.86Zm14.274-78.7L242.952,2954l-0.932-1.2,44.323-41.94,44.322,41.94-0.933,1.2Zm-29.3,59.27,29.3-27.72,29.3,27.72-0.932,1.21-28.366-26.84-28.367,26.84Zm29.3-160.19-88.462,83.69-0.931-1.21,89.393-84.57,89.393,84.57-0.933,1.21Zm96.237,43.76-13.332,12.61-0.93-1.21,14.262-13.49,14.262,13.49-0.932,1.21Zm-44.311-27.45,44.284-41.9,0.073,0.07,0.026-.03,44.237,41.86-0.932,1.2L382.58,2788.5,339.2,2829.54Zm44.311-6.2-28.355,26.83-0.931-1.21,29.26-27.68,0.072,0.07,0.025-.03,29.215,27.64-0.933,1.21Zm43.172,188.85-43.172-40.85-43.174,40.85H337.2l45.38-42.94,45.379,42.94h-2.206Zm-35.557,0-7.615-7.21-7.615,7.21h-2.207l9.822-9.3,9.822,9.3H390.2Zm71.115,0-78.73-74.49-78.732,74.49H301.64l80.94-76.58,80.938,76.58H461.31Zm17.5-165.32-73.437,69.48-0.932-1.21,74.369-70.36,74.371,70.36-0.935,1.21Zm0,134.56-13.342,12.63-0.932-1.21,14.274-13.5,14.275,13.5-0.932,1.21Zm0-67.28L435.425,2954l-0.932-1.2,44.322-41.94,44.323,41.94-0.932,1.2Zm-29.3,59.27,29.3-27.72,29.3,27.72-0.929,1.21-28.368-26.84-28.365,26.84Zm-60.1-77.71,89.393-84.57,89.394,84.57-0.932,1.21-88.462-83.69-88.46,83.69Zm171.368-27.32,14.264-13.49,14.261,13.49-0.932,1.21-13.329-12.61-13.332,12.61Zm-30.048-38.85,44.312-41.93,44.308,41.93-0.931,1.2-43.377-41.04-43.38,41.04Zm44.312-6.2L546.7,2848.97l-0.932-1.21,29.287-27.7,29.286,27.7-0.935,1.21Zm43.172,188.85-43.172-40.85-43.176,40.85h-2.205l45.381-42.94,45.378,42.94h-2.206Zm-35.557,0-7.615-7.21-7.615,7.21h-2.208l9.823-9.3,9.82,9.3h-2.205Zm71.115,0-78.73-74.49-78.733,74.49h-2.208l80.941-76.58,80.938,76.58h-2.208Zm17.5-165.32-73.436,69.48-0.932-1.21,74.368-70.36,74.371,70.36-0.934,1.21Zm0,134.56-13.342,12.63-0.932-1.21,14.274-13.5,14.274,13.5-0.931,1.21Zm-44.322-27.43,44.322-41.94,44.323,41.94-0.932,1.2-43.391-41.05L627.9,2954Zm15.025,19.42,29.3-27.72,29.3,27.72-0.931,1.21-28.366-26.84-28.365,26.84Zm29.3-160.19-88.461,83.69-0.932-1.21,89.393-84.57,89.394,84.57-0.932,1.21Zm81.975,55.16,14.264-13.49,14.26,13.49-0.931,1.21-13.329-12.61L754.2,2868.4Zm-30.048-38.85,44.309-41.93,44.311,41.93-0.931,1.2-43.377-41.04-43.38,41.04Zm44.312-6.2-28.355,26.83-0.932-1.21,29.287-27.7,29.283,27.7-0.932,1.21ZM810.7,3010.99l-43.172-40.85-43.176,40.85h-2.2l45.378-42.94,45.38,42.94h-2.2Zm-35.56,0-7.612-7.21-7.615,7.21h-2.208l9.82-9.3,9.823,9.3H775.14Zm71.118,0-78.73-74.49L688.8,3010.99h-2.208l80.938-76.58,80.941,76.58h-2.208Zm17.5-165.32-73.439,69.48-0.931-1.21,74.37-70.36,74.371,70.36-0.935,1.21Zm0,134.56-13.342,12.63-0.932-1.21,14.274-13.5,14.274,13.5-0.931,1.21Zm0-67.28L820.372,2954l-0.931-1.2,44.322-41.94,44.323,41.94-0.932,1.2Zm-29.3,59.27,29.3-27.72,29.3,27.72-0.932,1.21-28.365-26.84L835.4,2973.43Zm29.3-160.19L775.3,2895.72l-0.931-1.21,89.393-84.57,89.394,84.57-0.932,1.21Zm81.975,55.16L960,2853.7l14.261,13.49-0.932,1.21L960,2855.79,946.67,2868.4Zm-30.048-38.85L960,2786.41l44.311,41.93-0.93,1.2L960,2788.5l-43.377,41.04Zm44.309-6.2-28.355,26.83-0.929-1.21L960,2820.06l29.284,27.7-0.932,1.21Zm43.171,188.85L960,2970.14l-43.173,40.85h-2.208L960,2968.05l45.381,42.94h-2.21Zm-35.556,0L960,3003.78l-7.615,7.21h-2.208l9.823-9.3,9.821,9.3h-2.208Zm71.116,0L960,2936.5l-78.73,74.49h-2.208L960,2934.41l80.941,76.58h-2.21Zm-56.864-97.05,74.374-70.36,74.36,70.36-0.93,1.21-73.43-69.48L982.8,2915.15Zm74.374,66.29-13.35,12.63-0.93-1.21,14.28-13.5,14.27,13.5-0.93,1.21Zm-44.33-27.43,44.33-41.94,44.32,41.94-0.93,1.2-43.39-41.05L1012.85,2954Zm15.03,19.42,29.3-27.72,29.29,27.72-0.93,1.21-28.36-26.84-28.37,26.84Zm29.3-160.19-88.465,83.69-0.932-1.21,89.4-84.57,89.39,84.57-0.93,1.21Zm81.97,55.16,14.27-13.49,14.26,13.49-0.94,1.21-13.33-12.61-13.33,12.61Zm14.26-78.69-43.37,41.04-0.94-1.2,44.31-41.93,44.31,41.93-0.93,1.2Zm0,33.64-28.35,26.83-0.93-1.21,29.28-27.7,29.29,27.7-0.93,1.21Zm43.18,188.85-43.18-40.85-43.17,40.85h-2.21l45.38-42.94,45.38,42.94h-2.2Zm-35.56,0-7.62-7.21-7.61,7.21h-2.21l9.82-9.3,9.83,9.3h-2.21Zm71.12,0-78.74-74.49-78.73,74.49h-2.21l80.94-76.58,80.94,76.58h-2.2Zm-56.87-97.05,74.37-70.36,74.37,70.36-0.93,1.21-73.44-69.48-73.44,69.48Zm60.1,77.71,14.27-13.5,14.27,13.5-0.93,1.21-13.34-12.63-13.34,12.63Zm14.27-78.7L1205.32,2954l-0.93-1.2,44.32-41.94,44.32,41.94-0.93,1.2Zm-29.3,59.27,29.3-27.72,29.3,27.72-0.93,1.21-28.37-26.84-28.37,26.84Zm29.3-160.19-88.46,83.69-0.93-1.21,89.39-84.57,89.39,84.57-0.93,1.21Zm81.98,55.16,14.23-13.47,0.02,0.02,0.02-.03,14.25,13.48-0.93,1.21-13.33-12.61-13.33,12.61Zm14.26-78.69-43.38,41.04-0.93-1.2,44.22-41.85,0.08,0.09,0.08-.1,44.24,41.86-0.94,1.2Zm0,33.64-28.36,26.83-0.93-1.21,29.2-27.63,0.08,0.09,0.08-.09,29.21,27.63-0.93,1.21Zm43.17,188.85-43.17-40.85-43.18,40.85h-2.2l45.35-42.92,0.02,0.02,0.02-.03,45.37,42.93h-2.21Zm-35.56,0-7.61-7.21-7.62,7.21h-2.2l9.79-9.27,0.02,0.01,0.02-.02,9.81,9.28h-2.21Zm71.12,0-78.73-74.49-78.73,74.49h-2.21l80.91-76.56,0.02,0.02,0.02-.03,80.92,76.57h-2.2Zm17.5-165.32-73.43,69.48-0.94-1.21,74.37-70.36,74.37,70.36-0.93,1.21Zm0,134.56-13.34,12.63-0.93-1.21,14.27-13.5,14.28,13.5-0.94,1.21Zm0-67.28L1397.79,2954l-0.93-1.2,44.32-41.94,44.32,41.94-0.93,1.2Zm0,33.64-28.36,26.84-0.93-1.21,29.29-27.72,29.3,27.72-0.93,1.21Zm0-134.56-88.46,83.69-0.93-1.21,89.39-84.57,89.4,84.57-0.94,1.21Zm96.24,43.76-13.33,12.61-0.93-1.21,14.24-13.47,0.01,0.02,0.02-.03,14.25,13.48-0.93,1.21Zm0-67.29-43.38,41.04-0.93-1.2,44.23-41.85,0.07,0.09,0.08-.1,44.24,41.86-0.93,1.2Zm0,33.64-28.35,26.83-0.94-1.21,29.21-27.63,0.07,0.09,0.08-.09,29.22,27.63-0.94,1.21Zm43.17,188.85-43.17-40.85-43.17,40.85h-2.21l45.36-42.92,0.01,0.02,0.02-.03,45.37,42.93h-2.21Zm-35.55,0-7.62-7.21-7.61,7.21h-2.21l9.8-9.27,0.01,0.01,0.02-.02,9.81,9.28h-2.2Zm71.11,0-78.73-74.49-78.73,74.49h-2.21l80.92-76.56,0.01,0.02,0.02-.03,80.93,76.57h-2.21Zm17.51-730.45-36.57,34.6,0.74-.96-1.66-1.58,1.8,1.39,5.2-6.71,30.49-28.82,30.63,28.98,4.26,5.53,48.61-45.99h2.21l-49.89,47.2,0.75,0.96Zm-85.71-13.56h2.2l46.6,44.09-0.93,1.2Zm85.71,80.85-73.44,69.48-0.93-1.21,74.37-70.36,74.37,70.36-0.94,1.21Zm0,134.56-13.35,12.63-0.93-1.21,14.28-13.5,14.27,13.5-0.93,1.21Zm0-67.28-43.39,41.05-0.93-1.2,44.32-41.94,44.32,41.94-0.93,1.2Zm0,33.64-28.37,26.84-0.93-1.21,29.3-27.72,29.3,27.72-0.94,1.21Zm0-134.56-88.47,83.69-0.93-1.21,89.4-84.57,89.39,84.57-0.93,1.21Zm21.87-22.55,26.08-24.66h2.2l-27.34,25.87Zm-15.02-19.43,5.54-5.23h2.2l-6.81,6.44Zm60.1,77.71,29.2-27.63,0.07,0.09,0.09-.1,29.21,27.64-0.93,1.21-28.36-26.83-28.35,26.83Zm-45.08,190.64,74.34-70.33,0.01,0.02,0.03-.02,74.34,70.33-0.93,1.21-73.43-69.47-73.42,69.47Zm-15.02-19.43,89.36-84.54,0.01,0.02,0.03-.03,89.36,84.55-0.92,1.21-88.46-83.68-88.45,83.68Zm-103.09-163.18-13.33,12.61-0.93-1.21,14.24-13.47,0.01,0.02,0.02-.03,14.25,13.48-0.93,1.21Zm0-67.29-43.38,41.04-0.93-1.2,44.23-41.85,0.07,0.09,0.08-.1,44.24,41.86-0.93,1.2Zm81.64-23.68h2.21l5.53,5.23-0.93,1.21Zm-35.56,0h2.21l26.07,24.66-0.93,1.21Zm206.81,47.2-1.68-1.59,1.82,1.4,5.19-6.71,30.49-28.82,30.63,28.98,4.26,5.53,48.62-45.99h2.2l-49.89,47.2,0.75,0.96-36.57-34.6-36.58,34.61Zm-49.89-47.2h2.21l46.6,44.09-0.94,1.2Zm85.71,80.85-73.44,69.48-0.93-1.21,74.37-70.36,74.37,70.36-0.93,1.21Zm0,134.56-13.34,12.63-0.93-1.21,14.27-13.5,14.27,13.5-0.93,1.21Zm0-67.28-43.39,41.05-0.93-1.2,44.32-41.94,44.32,41.94-0.93,1.2Zm-29.3,59.27,29.3-27.72,29.3,27.72-0.93,1.21-28.37-26.84-28.37,26.84Zm29.3-160.19-88.46,83.69-0.93-1.21,89.39-84.57,89.39,84.57-0.93,1.21Zm81.97,55.16,12.9-12.2v2.09l-11.96,11.32Zm-60.09-77.71,26.07-24.66h2.2l-27.34,25.87Zm-15.02-19.43,5.53-5.23h2.21l-6.81,6.44Zm45.07,58.29,42.94-40.63v2.09l-42.01,39.74Zm15.02,19.42,27.92-26.41v2.09l-26.99,25.53Zm-391.47,88.72-60.43-57.17-60.42,57.17,0.75,0.96-36.56-34.58-36.57,34.59,0.76-.97-60.43-57.17-60.43,57.17,0.75,0.96-36.56-34.58-36.56,34.59,0.75-.97-60.42-57.17-60.428,57.17,0.754,0.97L960,2405.02l-36.568,34.59,0.757-.97-60.425-57.17-60.425,57.17,0.754,0.97-36.564-34.59-36.573,34.6,0.759-.98-60.425-57.17-60.425,57.17,0.751,0.97-36.561-34.59-36.57,34.59,0.756-.97-60.425-57.17-60.424,57.17,0.753,0.97-36.564-34.59-36.566,34.59,0.754-.97-60.425-57.17-60.426,57.17,0.749,0.97-36.56-34.59-36.566,34.59,0.754-.97-60.425-57.17-60.424,57.17,0.751,0.97L-1,2406.31v-2.09l29.254,27.68,1.5,1.96,2.763,3.57,61.356-58.05,59.347,56.15-0.742.96,2.183,1.68,4.971-6.43,30.478-28.81,30.622,28.97,1.494,1.96,2.764,3.57,61.357-58.05,61.355,58.05,1.674-2.16,2.729-3.53,30.478-28.81L413.2,2431.9l4.259,5.53,61.356-58.05,59.345,56.15-0.772,1,2.183,1.68,5-6.47,30.476-28.81,30.624,28.97,1.492,1.96,2.766,3.57,61.356-58.05,61.357,58.05,4.338-5.61,30.541-28.89,30.624,28.97,1.5,1.96,2.763,3.57,61.356-58.05,61.357,58.05,2.733-3.53,1.667-2.16L960,2402.93l30.624,28.97,1.5,1.96,2.762,3.57,61.36-58.05,61.35,58.05,2.74-3.53,1.66-2.16,30.48-28.81,30.63,28.97,1.49,1.96,2.76,3.57,61.36-58.05,61.35,58.05,4.41-5.69,30.45-28.79,0.02,0.02,0.02-.03,30.61,28.96,4.26,5.53,61.35-58.05,61.36,58.05,0.95-1.22,3.45-4.47,30.46-28.79,0.01,0.02,0.02-.03,30.61,28.96,4.26,5.53,61.36-58.05,59.34,56.15-0.93,1.2-58.41-55.26-60.43,57.17,0.75,0.96-36.56-34.58-36.57,34.6Zm194.3-2.37,3.51-4.53,30.45-28.79,0.01,0.02,0.03-.03,30.61,28.96,4.25,5.53,61.36-58.05,59.34,56.15-0.93,1.2-58.41-55.26-60.43,57.17,0.76,0.97-36.57-34.59-36.57,34.59Zm195.98-4.53,29.11-27.52v2.09l-35.19,33.3Zm-176.26-62.39,14.24-13.47,0.01,0.02,0.03-.03,14.24,13.48-0.93,1.21-13.33-12.61-13.33,12.61Zm-30.05-38.86,44.23-41.84,0.07,0.09,0.09-.1,44.23,41.86-0.93,1.2-43.38-41.04-43.37,41.04Zm125.96-63.51h2.2l5.53,5.23-0.92,1.21Zm-35.57,0h2.21l26.07,24.66-0.93,1.21Zm-142.31,329.77-73.44,69.48-0.93-1.21,74.37-70.36,74.37,70.36-0.94,1.21Zm0,134.56-13.35,12.63-0.93-1.21,14.28-13.5,14.27,13.5-0.93,1.21Zm0-67.28-43.39,41.05-0.93-1.2,44.32-41.94,44.32,41.94-0.93,1.2Zm0,33.64-28.37,26.84-0.93-1.21,29.3-27.72,29.3,27.72-0.94,1.21Zm0-134.56-88.47,83.69-0.93-1.21,89.4-84.57,89.39,84.57-0.93,1.21Zm81.97,55.16,14.24-13.47,0.01,0.02,0.03-.03,14.24,13.48-0.93,1.21-13.33-12.61-13.33,12.61Zm14.26-78.69-43.37,41.04-0.94-1.21,44.29-41.89,0.01,0.01,0.03-.02,44.29,41.91-0.93,1.2Zm-29.28,59.26,29.26-27.68,0.01,0.01,0.03-.02,29.27,27.69-0.93,1.21-28.36-26.83-28.35,26.83Zm-45.08,190.64,74.34-70.33,0.01,0.02,0.03-.02,74.34,70.33-0.93,1.21-73.43-69.47-73.42,69.47Zm-15.02-19.43,89.36-84.54,0.01,0.02,0.03-.03,89.36,84.55-0.92,1.21-88.46-83.68-88.45,83.68ZM1212.89,2563.1l-60.42-57.16-60.41,57.16,0.75,0.96-36.57-34.6-36.58,34.61,0.75-.97-1.67-1.59,1.82,1.4,5.18-6.71,30.5-28.82,30.63,28.98,4.26,5.53,61.34-58.04,61.35,58.04,4.4-5.69,30.49-28.82,30.63,28.98,4.26,5.53,61.32-58.01,0.02,0.01,0.02-.02,61.33,58.02,4.4-5.69,30.49-28.82,30.64,28.98,4.25,5.53,61.33-58.01,0.01,0.01,0.02-.02,59.32,56.12-0.93,1.2-58.4-55.25-60.41,57.16,0.74,0.96-36.57-34.6-36.57,34.6,0.75-.96-60.41-57.16-60.42,57.16,0.74,0.95-36.56-34.59-36.57,34.61Zm577.42,0-1.68-1.59,1.82,1.4,5.19-6.71,30.49-28.82,30.63,28.98,4.26,5.53,59.98-56.75v2.09l-59.05,55.87,0.75,0.96-36.57-34.6-36.58,34.61Zm-1347.319,0-1.675-1.59,1.818,1.4,5.192-6.71,30.489-28.82,30.633,28.98,4.26,5.53,61.346-58.04,59.331,56.14-0.931,1.2-58.4-55.25-60.415,57.16,0.749,0.96-36.573-34.6-36.575,34.61Zm384.948,0-1.675-1.59,1.818,1.4,5.189-6.71,30.492-28.82,30.633,28.98,4.26,5.53L960,2503.85l59.331,56.14-0.93,1.2L960,2505.94l-60.414,57.16,0.749,0.96-36.573-34.6-36.575,34.61Zm-192.474,0-1.675-1.59,1.818,1.4,5.189-6.71,30.492-28.82,30.633,28.98,4.26,5.53,61.343-58.04,59.334,56.14-0.931,1.2-58.4-55.25-60.415,57.16,0.749,0.96-36.573-34.6-36.575,34.61Zm-384.946,0-60.413-57.16-60.414,57.16,0.744,0.96-36.567-34.6L57.3,2564.06l0.749-.96-1.67-1.58,1.813,1.39,5.19-6.71,30.49-28.82,30.631,28.98,4.26,5.53,61.346-58.04,61.344,58.04,4.4-5.69,30.49-28.82,30.631,28.98,4.26,5.53,61.346-58.04,59.331,56.14-0.931,1.2-58.4-55.25-60.414,57.16,0.744,0.96-36.567-34.6-36.574,34.61Zm1383.141-33.64-36.57,34.6,0.74-.96-1.66-1.58,1.8,1.39,5.2-6.71,30.49-28.82,30.63,28.98,4.26,5.53,61.32-58.01,0.01,0.01,0.03-.02,59.32,56.12-0.94,1.2-58.4-55.25-60.41,57.16,0.75,0.96ZM-1,2507.23v-2.09l57.965,54.85-0.93,1.2Zm1827.13,89.52-73.44,69.48-0.93-1.21,74.37-70.36,74.37,70.36-0.93,1.21Zm0,134.56-13.34,12.63-0.93-1.21,14.27-13.5,14.27,13.5-0.93,1.21Zm0-67.28-43.39,41.05-0.93-1.2,44.32-41.94,44.32,41.94-0.93,1.2Zm-29.3,59.27,29.3-27.72,29.3,27.72-0.93,1.21-28.37-26.84-28.37,26.84Zm29.3-160.19-88.46,83.69-0.93-1.21,89.39-84.57,89.39,84.57-0.93,1.21Zm81.97,55.16,12.9-12.2v2.09l-11.96,11.32Zm-60.09-77.71L1921,2471.5v2.09l-72.06,68.18Zm-15.02-19.43,88.01-83.27v2.09l-87.08,82.39Zm45.07,58.29,42.94-40.63v2.09l-42.01,39.74Zm15.02,19.42,27.92-26.41v2.09l-26.99,25.53ZM960,2653.94l-36.56,34.59,3.988-5.16,2.093-2.71L960,2651.85l30.624,28.97,1.5,1.96,2.762,3.57,61.36-58.05,59.34,56.15-0.93,1.2-58.41-55.26-60.428,57.17,0.751,0.97Zm-223.018,26.8,30.544-28.89,30.624,28.97,1.5,1.96,2.763,3.57,61.356-58.05,59.345,56.15-0.932,1.2-58.413-55.26-60.425,57.17,0.752,0.97-36.562-34.59-36.565,34.59Zm-192.406-.08,30.476-28.81,30.624,28.97,1.492,1.96,2.766,3.57,61.356-58.05,59.345,56.15-0.931,1.2-58.414-55.26-60.425,57.17,0.751,0.97-36.561-34.59-36.565,34.59Zm1185.315-26.72-36.55,34.58,6.08-7.86,30.45-28.79,0.01,0.02,0.03-.03,30.61,28.96,4.25,5.53,61.36-58.05,59.34,56.15-0.93,1.2-58.41-55.26-60.43,57.17,0.76,0.97Zm-1347.31,0-36.559,34.58,6.08-7.86,30.478-28.81,30.621,28.97,4.259,5.53,61.356-58.05,59.345,56.15-0.931,1.2-58.414-55.26-60.424,57.17,0.751,0.97ZM-1,2655.23v-2.09l29.254,27.68,1.5,1.96,2.763,3.57,61.356-58.05,59.347,56.15-0.932,1.2-58.415-55.26-60.425,57.17,0.75,0.97Zm191.106-1.29-36.554,34.58,6.076-7.86,30.478-28.81,30.622,28.97,1.494,1.96,2.764,3.57,61.357-58.05,59.345,56.15-0.932,1.2-58.413-55.26-60.426,57.17,0.748,0.96Zm1154.844,0-36.56,34.58,6.08-7.86,30.45-28.79,0.02,0.02,0.02-.03,30.61,28.96,4.26,5.53,61.35-58.05,59.35,56.15-0.93,1.2-58.42-55.26-60.42,57.17,0.74,0.96Zm-192.48,0-36.55,34.58,3.98-5.15,2.09-2.71,30.48-28.81,30.63,28.97,1.49,1.96,2.76,3.57,61.36-58.05,59.35,56.15-0.94,1.2-58.41-55.26-60.43,57.17,0.75,0.96Zm384.95,0-36.55,34.58,6.07-7.86,30.46-28.79,0.01,0.02,0.02-.03,30.61,28.96,4.26,5.53,61.36-58.05,59.34,56.15-0.93,1.2-58.41-55.26-60.43,57.17,0.75,0.96Zm354.47,26.72,29.11-27.52v2.09l-35.19,33.29Zm-258.23,165.01-73.44,69.48-0.93-1.21,74.37-70.36,74.37,70.36-0.94,1.21Zm0,134.56-13.35,12.63-0.93-1.21,14.28-13.5,14.27,13.5-0.93,1.21Zm0-67.28L1590.27,2954l-0.93-1.2,44.32-41.94,44.32,41.94-0.93,1.2Zm0,33.64-28.37,26.84-0.93-1.21,29.3-27.72,29.3,27.72-0.94,1.21Zm0-134.56-88.47,83.69-0.93-1.21,89.4-84.57,89.39,84.57-0.93,1.21Zm81.97,55.16,14.24-13.47,0.01,0.02,0.03-.03,14.24,13.48-0.93,1.21-13.33-12.61-13.33,12.61Zm-30.05-38.86,44.23-41.84,0.07,0.09,0.09-.1,44.23,41.86-0.93,1.2-43.38-41.04-43.37,41.04Zm15.03,19.43,29.2-27.63,0.07,0.09,0.09-.09,29.21,27.63-0.93,1.21-28.36-26.83-28.35,26.83Zm72.46,163.23-43.18-40.85-43.17,40.85h-2.21l45.36-42.92,0.01,0.02,0.03-.02,45.36,42.92h-2.2Zm-35.56,0-7.62-7.21-7.61,7.21h-2.21l9.8-9.27,0.01,0.01,0.03-.02,9.8,9.28h-2.2Zm71.11,0-78.73-74.49-78.73,74.49h-2.2l80.91-76.56,0.01,0.02,0.03-.03,80.92,76.57h-2.21Zm-595.73-198.97-60.42-57.16-60.41,57.16,0.75,0.96-36.57-34.6-36.58,34.61,0.75-.97-1.67-1.59,1.82,1.4,5.18-6.71,30.5-28.82,30.63,28.98,4.26,5.53,61.34-58.04,61.35,58.04,4.4-5.69,30.49-28.82,30.63,28.98,4.26,5.53,61.32-58.01,0.02,0.01,0.02-.02,61.33,58.02,4.4-5.69,30.49-28.82,30.64,28.98,4.25,5.53,61.33-58.01,0.01,0.01,0.02-.02,59.32,56.12-0.93,1.2-58.4-55.25-60.41,57.16,0.74,0.96-36.57-34.6-36.56,34.6,0.74-.96-60.41-57.16-60.42,57.16,0.74,0.95-36.56-34.59-36.57,34.61Zm577.42,0-1.68-1.59,1.82,1.4,5.19-6.71,30.49-28.82,30.63,28.98,4.26,5.53,59.98-56.74v2.08l-59.05,55.87,0.75,0.96-36.57-34.6-36.58,34.61Zm-1347.319,0-1.672-1.59,1.815,1.4,5.192-6.71,30.489-28.82,30.633,28.98,4.26,5.53,61.346-58.04,59.331,56.14-0.931,1.2-58.4-55.25-60.415,57.16,0.749,0.96-36.573-34.6-36.575,34.61Zm384.948,0-1.672-1.59,1.815,1.4,5.189-6.71,30.492-28.82,30.633,28.98,4.26,5.53L960,2752.77l59.331,56.14-0.93,1.2L960,2754.86l-60.414,57.16,0.749,0.96-36.573-34.6-36.575,34.61Zm-192.474,0-1.672-1.59,1.815,1.4,5.189-6.71,30.492-28.82,30.633,28.98,4.26,5.53,61.343-58.04,59.334,56.14-0.931,1.2-58.4-55.25-60.415,57.16,0.749,0.96-36.573-34.6-36.575,34.61Zm-384.946,0-1.67-1.58,1.813,1.39,5.191-6.71,30.49-28.82,30.631,28.98,4.26,5.53,61.346-58.04,59.331,56.14-0.931,1.2-58.4-55.25-60.414,57.16,0.743,0.96-36.566-34.6-36.573,34.61Zm1383.141-33.64-36.57,34.6,0.74-.96-1.66-1.58,1.8,1.39,5.2-6.71,30.49-28.82,30.63,28.98,4.26,5.53,61.32-58.01,0.01,0.01,0.03-.02,59.32,56.12-0.94,1.2-58.4-55.25-60.41,57.16,0.75,0.96ZM58.046,2812.02l-1.667-1.58,1.81,1.39,5.19-6.71,30.49-28.82,30.631,28.98,4.26,5.53,61.346-58.04,59.333,56.14-0.932,1.2-58.4-55.25-60.414,57.16,0.744,0.96-36.567-34.6-36.57,34.6ZM-1,2756.15v-2.08l57.966,54.84-0.932,1.2Zm1827.13,89.52-73.44,69.48-0.93-1.21,74.37-70.36,74.37,70.36-0.93,1.21Zm0,134.56-13.34,12.63-0.93-1.21,14.27-13.5,14.27,13.5-0.93,1.21Zm0-67.28L1782.74,2954l-0.93-1.2,44.32-41.94,44.32,41.94-0.93,1.2Zm-29.3,59.27,29.3-27.72,29.3,27.72-0.93,1.21-28.37-26.84-28.37,26.84Zm29.3-160.19-88.46,83.69-0.93-1.21,89.39-84.57,89.39,84.57-0.93,1.21Zm81.97,55.16,12.9-12.2v2.09l-11.96,11.32Zm-60.09-77.71,72.99-69.06v2.09l-72.06,68.18Zm-15.02-19.43,88.01-83.27v2.09l-87.08,82.39Zm45.07,58.29,42.94-40.63v2.09l-42.01,39.74Zm15.02,19.42,27.92-26.41v2.09l-26.99,25.53Zm-391.47,88.72-60.43-57.17-60.42,57.17,0.75,0.96-36.56-34.58-36.57,34.59,0.76-.97-60.43-57.17-60.43,57.17,0.75,0.96-36.56-34.58-36.56,34.59,0.75-.97-60.42-57.17-60.428,57.17,0.754,0.97L960,2902.86l-36.568,34.59,0.757-.97-60.425-57.17-60.425,57.17,0.754,0.97-36.564-34.59-36.573,34.6,0.759-.98-60.425-57.17-60.425,57.17,0.751,0.97-36.561-34.59-36.57,34.59,0.756-.97-60.425-57.17-60.424,57.17,0.753,0.97-36.564-34.59-36.566,34.59,0.754-.97-60.425-57.17-60.426,57.17,0.749,0.97-36.56-34.59-36.566,34.59,0.754-.97-60.425-57.17-60.424,57.17,0.751,0.97L-1,2904.15v-2.09l29.254,27.68,1.5,1.96,2.763,3.57,61.356-58.05,59.347,56.15-0.742.96,2.183,1.68,4.971-6.43,30.478-28.81,30.622,28.97,1.494,1.96,2.764,3.57,61.357-58.05,61.355,58.05,1.674-2.16,2.729-3.53,30.478-28.81,30.621,28.97,4.259,5.53,61.356-58.05,59.345,56.15-0.772,1,2.183,1.68,5-6.47,30.476-28.81,30.624,28.97,1.492,1.96,2.766,3.57,61.356-58.05,61.357,58.05,4.338-5.61,30.541-28.89,30.624,28.97,1.5,1.96,2.763,3.57,61.356-58.05,61.357,58.05,2.733-3.53,1.667-2.16L960,2900.77l30.624,28.97,1.5,1.96,2.762,3.57,61.36-58.05,61.35,58.05,2.74-3.53,1.66-2.16,30.48-28.81,30.63,28.97,1.49,1.96,2.76,3.57,61.36-58.05,61.35,58.05,4.41-5.69,30.45-28.79,0.02,0.02,0.02-.03,30.61,28.96,4.26,5.53,61.35-58.05,61.36,58.05,0.95-1.22,3.45-4.47,30.46-28.79,0.01,0.02,0.02-.03,30.61,28.96,4.26,5.53,61.36-58.05,59.34,56.15-0.93,1.21-58.41-55.27-60.43,57.17,0.75,0.96-36.56-34.58-36.57,34.6Zm194.3-2.37,3.51-4.53,30.45-28.79,0.01,0.02,0.03-.03,30.61,28.96,4.25,5.53,61.36-58.05,59.34,56.15-0.93,1.2-58.41-55.26-60.43,57.17,0.76,0.97-36.57-34.59-36.57,34.59Zm195.98-4.53,29.11-27.52v2.09l-35.19,33.3Zm-14.9,81.41,44.01-41.65v2.09l-41.81,39.56h-2.2Zm35.55,0,8.46-8v2.08l-6.25,5.92h-2.21Zm-71.11,0L1921,2935.7v2.09l-77.36,73.2h-2.21Z" transform="translate(0 -2266.97)"/>
</svg>
