<svg xmlns="http://www.w3.org/2000/svg" width="9" height="10" viewBox="0 0 9 10">
  <metadata><?xpacket begin="﻿" id="W5M0MpCehiHzreSzNTczkc9d"?>
<x:xmpmeta xmlns:x="adobe:ns:meta/" x:xmptk="Adobe XMP Core 5.6-c138 79.159824, 2016/09/14-01:09:01        ">
   <rdf:RDF xmlns:rdf="http://www.w3.org/1999/02/22-rdf-syntax-ns#">
      <rdf:Description rdf:about=""/>
   </rdf:RDF>
</x:xmpmeta>
                                                                                                    
                                                                                                    
                                                                                                    
                                                                                                    
                                                                                                    
                                                                                                    
                                                                                                    
                                                                                                    
                                                                                                    
                                                                                                    
                                                                                                    
                                                                                                    
                                                                                                    
                                                                                                    
                                                                                                    
                                                                                                    
                                                                                                    
                                                                                                    
                                                                                                    
                                                                                                    
                           
<?xpacket end="w"?></metadata>
<defs>
    <style>
      .cls-1 {
        fill: #727272;
        fill-rule: evenodd;
      }
    </style>
  </defs>
  <path id="angle_right" class="cls-1" d="M975.907,320.768l-4.338-4.66a0.279,0.279,0,0,0-.428,0l-0.465.5a0.331,0.331,0,0,0,0,.46l3.658,3.93-3.658,3.931a0.322,0.322,0,0,0-.093.23,0.325,0.325,0,0,0,.093.23l0.465,0.5a0.279,0.279,0,0,0,.428,0l4.338-4.661A0.326,0.326,0,0,0,976,321a0.33,0.33,0,0,0-.093-0.23h0Zm0,0-3.482.23a0.325,0.325,0,0,0-.093-0.23L968,316.108a0.279,0.279,0,0,0-.428,0l-0.466.5a0.331,0.331,0,0,0,0,.46l3.658,3.93-3.658,3.931a0.331,0.331,0,0,0-.093.23,0.334,0.334,0,0,0,.093.23l0.466,0.5a0.279,0.279,0,0,0,.428,0l4.337-4.661a0.322,0.322,0,0,0,.093-0.23h0Zm0,0" transform="translate(-967 -316)"/>
</svg>
