<svg xmlns="http://www.w3.org/2000/svg" width="10" height="8" viewBox="0 0 10 8">
  <metadata><?xpacket begin="﻿" id="W5M0MpCehiHzreSzNTczkc9d"?>
<x:xmpmeta xmlns:x="adobe:ns:meta/" x:xmptk="Adobe XMP Core 5.6-c138 79.159824, 2016/09/14-01:09:01        ">
   <rdf:RDF xmlns:rdf="http://www.w3.org/1999/02/22-rdf-syntax-ns#">
      <rdf:Description rdf:about=""/>
   </rdf:RDF>
</x:xmpmeta>
                                                                                                    
                                                                                                    
                                                                                                    
                                                                                                    
                                                                                                    
                                                                                                    
                                                                                                    
                                                                                                    
                                                                                                    
                                                                                                    
                                                                                                    
                                                                                                    
                                                                                                    
                                                                                                    
                                                                                                    
                                                                                                    
                                                                                                    
                                                                                                    
                                                                                                    
                                                                                                    
                           
<?xpacket end="w"?></metadata>
<defs>
    <style>
      .cls-1 {
        fill: #fe3e57;
        fill-rule: evenodd;
      }
    </style>
  </defs>
  <path id="arrow" class="cls-1" d="M910.836,6130.62l-3.609-3.47a0.574,0.574,0,0,0-.774,0l-0.327.32a0.511,0.511,0,0,0-.16.37,0.534,0.534,0,0,0,.16.38l2.105,2.03h-6.689a0.518,0.518,0,0,0-.54.51v0.45a0.543,0.543,0,0,0,.54.54h6.713l-2.129,2.04a0.508,0.508,0,0,0,0,.74l0.327,0.32a0.6,0.6,0,0,0,.387.15,0.556,0.556,0,0,0,.387-0.16l3.609-3.47A0.507,0.507,0,0,0,911,6131a0.53,0.53,0,0,0-.16-0.38" transform="translate(-901 -6127)"/>
</svg>
