<svg 
 xmlns="http://www.w3.org/2000/svg"
 xmlns:xlink="http://www.w3.org/1999/xlink"
 width="16px" height="16px">
<path fill-rule="evenodd"  fill="rgb(254, 62, 87)"
 d="M14.125,15.999 L1.875,15.999 C0.841,15.999 -0.000,15.158 -0.000,14.124 L-0.000,3.124 C-0.000,2.090 0.841,1.249 1.875,1.249 L2.625,1.249 L2.625,-0.001 L3.875,-0.001 L3.875,1.249 L12.125,1.249 L12.125,-0.001 L13.375,-0.001 L13.375,1.249 L14.125,1.249 C15.159,1.249 15.1000,2.090 15.1000,3.124 L15.1000,14.124 C15.1000,15.158 15.159,15.999 14.125,15.999 ZM14.750,3.124 C14.750,2.780 14.470,2.499 14.125,2.499 L13.375,2.499 L13.375,3.749 L12.125,3.749 L12.125,2.499 L3.875,2.499 L3.875,3.749 L2.625,3.749 L2.625,2.499 L1.875,2.499 C1.530,2.499 1.250,2.780 1.250,3.124 L1.250,4.624 L14.750,4.624 L14.750,3.124 ZM14.750,5.874 L1.250,5.874 L1.250,14.124 C1.250,14.469 1.530,14.749 1.875,14.749 L14.125,14.749 C14.470,14.749 14.750,14.469 14.750,14.124 L14.750,5.874 ZM12.375,9.687 L13.625,9.687 L13.625,10.937 L12.375,10.937 L12.375,9.687 ZM12.375,7.187 L13.625,7.187 L13.625,8.437 L12.375,8.437 L12.375,7.187 ZM9.875,12.187 L11.125,12.187 L11.125,13.437 L9.875,13.437 L9.875,12.187 ZM9.875,9.687 L11.125,9.687 L11.125,10.937 L9.875,10.937 L9.875,9.687 ZM9.875,7.187 L11.125,7.187 L11.125,8.437 L9.875,8.437 L9.875,7.187 ZM7.375,12.187 L8.625,12.187 L8.625,13.437 L7.375,13.437 L7.375,12.187 ZM7.375,9.687 L8.625,9.687 L8.625,10.937 L7.375,10.937 L7.375,9.687 ZM7.375,7.187 L8.625,7.187 L8.625,8.437 L7.375,8.437 L7.375,7.187 ZM4.875,12.187 L6.125,12.187 L6.125,13.437 L4.875,13.437 L4.875,12.187 ZM4.875,9.687 L6.125,9.687 L6.125,10.937 L4.875,10.937 L4.875,9.687 ZM4.875,7.187 L6.125,7.187 L6.125,8.437 L4.875,8.437 L4.875,7.187 ZM2.375,12.187 L3.625,12.187 L3.625,13.437 L2.375,13.437 L2.375,12.187 ZM2.375,9.687 L3.625,9.687 L3.625,10.937 L2.375,10.937 L2.375,9.687 ZM2.375,7.187 L3.625,7.187 L3.625,8.437 L2.375,8.437 L2.375,7.187 Z"/>
</svg>