<svg xmlns="http://www.w3.org/2000/svg" width="22" height="20" viewBox="0 0 22 20">
  <metadata><?xpacket begin="﻿" id="W5M0MpCehiHzreSzNTczkc9d"?>
<x:xmpmeta xmlns:x="adobe:ns:meta/" x:xmptk="Adobe XMP Core 5.6-c138 79.159824, 2016/09/14-01:09:01        ">
   <rdf:RDF xmlns:rdf="http://www.w3.org/1999/02/22-rdf-syntax-ns#">
      <rdf:Description rdf:about=""/>
   </rdf:RDF>
</x:xmpmeta>
                                                                                                    
                                                                                                    
                                                                                                    
                                                                                                    
                                                                                                    
                                                                                                    
                                                                                                    
                                                                                                    
                                                                                                    
                                                                                                    
                                                                                                    
                                                                                                    
                                                                                                    
                                                                                                    
                                                                                                    
                                                                                                    
                                                                                                    
                                                                                                    
                                                                                                    
                                                                                                    
                           
<?xpacket end="w"?></metadata>
<defs>
    <style>
      .cls-1 {
        fill: #29282d;
        fill-rule: evenodd;
      }
    </style>
  </defs>
  <path id="cart_icon" class="cls-1" d="M1527.44,65a2.724,2.724,0,1,1,2.74-2.724A2.738,2.738,0,0,1,1527.44,65Zm0-3.814a1.09,1.09,0,1,0,1.09,1.09A1.094,1.094,0,0,0,1527.44,61.183Zm1.75-2.806h-12.81a0.823,0.823,0,0,1-.8-0.628l-2.68-11.115h-2.06a0.817,0.817,0,1,1,0-1.634h2.71a0.824,0.824,0,0,1,.8.627l0.74,3.078h16.1a0.818,0.818,0,0,1,.8,1.014l-2,8.038A0.822,0.822,0,0,1,1529.19,58.377Zm-12.16-1.635h11.52l1.59-6.4h-14.65ZM1517.48,65a2.724,2.724,0,1,1,2.74-2.724A2.738,2.738,0,0,1,1517.48,65Zm0-3.814a1.09,1.09,0,1,0,1.09,1.09A1.094,1.094,0,0,0,1517.48,61.183Z" transform="translate(-1510 -45)"/>
</svg>
