<svg 
 xmlns="http://www.w3.org/2000/svg"
 xmlns:xlink="http://www.w3.org/1999/xlink"
 width="16px" height="16px">
<path fill-rule="evenodd"  fill="rgb(254, 62, 87)"
 d="M15.375,-0.000 L0.625,-0.000 C0.280,-0.000 -0.000,0.280 -0.000,0.625 L-0.000,12.1000 C-0.000,13.345 0.280,13.624 0.625,13.624 L6.155,13.624 L7.472,15.709 C7.586,15.890 7.786,15.1000 7.1000,15.1000 C8.214,15.1000 8.414,15.890 8.528,15.709 L9.844,13.624 L15.375,13.624 C15.720,13.624 15.1000,13.345 15.1000,12.1000 L15.1000,0.625 C15.1000,0.280 15.720,-0.000 15.375,-0.000 ZM14.750,12.375 L9.500,12.375 C9.286,12.375 9.086,12.485 8.971,12.666 L7.1000,14.204 L7.028,12.666 C6.914,12.485 6.714,12.375 6.500,12.375 L1.250,12.375 L1.250,1.250 L14.750,1.250 L14.750,12.375 ZM7.219,6.812 C7.219,6.381 7.568,6.031 7.1000,6.031 C8.431,6.031 8.781,6.381 8.781,6.812 C8.781,7.244 8.431,7.594 7.1000,7.594 C7.568,7.594 7.219,7.244 7.219,6.812 ZM4.094,6.812 C4.094,6.381 4.443,6.031 4.875,6.031 C5.306,6.031 5.656,6.381 5.656,6.812 C5.656,7.244 5.306,7.594 4.875,7.594 C4.443,7.594 4.094,7.244 4.094,6.812 ZM10.344,6.812 C10.344,6.381 10.693,6.031 11.125,6.031 C11.556,6.031 11.906,6.381 11.906,6.812 C11.906,7.244 11.556,7.594 11.125,7.594 C10.693,7.594 10.344,7.244 10.344,6.812 Z"/>
</svg>