<svg 
 xmlns="http://www.w3.org/2000/svg"
 xmlns:xlink="http://www.w3.org/1999/xlink"
 width="18px" height="20px">
<path fill-rule="evenodd"  fill="rgb(254, 62, 87)"
 d="M17.818,18.1000 L12.248,13.557 C14.406,11.448 15.869,10.019 17.999,7.938 L17.999,18.246 C17.999,18.517 17.931,18.770 17.818,18.1000 ZM15.599,5.108 L17.399,6.866 L15.599,8.625 L15.599,5.108 ZM6.848,12.971 L3.600,9.797 L3.600,0.638 C3.600,0.284 3.894,-0.003 4.256,-0.003 L13.630,-0.003 C14.055,-0.003 14.399,0.333 14.399,0.748 L14.399,9.797 L11.151,12.971 L6.848,12.971 ZM8.1000,3.592 C10.654,3.592 11.999,4.907 11.999,6.523 C11.999,7.298 10.799,7.298 10.799,6.523 C10.799,5.553 9.992,4.764 8.1000,4.764 C8.007,4.764 7.200,5.553 7.200,6.523 C7.200,7.492 8.007,8.281 8.1000,8.281 C9.462,8.281 9.880,8.105 10.199,7.824 C11.365,8.853 13.199,8.030 13.199,6.523 C13.199,4.260 11.315,2.420 8.1000,2.420 C6.684,2.420 4.800,4.260 4.800,6.523 C4.800,7.928 5.525,9.220 6.739,9.980 C8.013,10.777 9.540,10.821 10.915,10.202 C11.638,9.878 11.129,8.813 10.414,9.138 C9.379,9.602 8.277,9.549 7.386,8.993 C6.518,8.449 5.1000,7.526 5.1000,6.523 C5.1000,4.907 7.345,3.592 8.1000,3.592 ZM8.1000,7.109 C8.669,7.109 8.400,6.846 8.400,6.523 C8.400,6.199 8.669,5.937 8.1000,5.937 C9.315,5.937 9.569,6.179 9.591,6.482 C9.525,6.831 9.415,7.109 8.1000,7.109 ZM2.400,5.108 L2.400,8.625 L0.600,6.866 L2.400,5.108 ZM0.180,18.1000 C0.068,18.770 0.000,18.517 0.000,18.246 L0.000,7.938 C2.220,10.106 3.617,11.471 5.751,13.557 L0.180,18.1000 ZM11.151,14.143 L16.970,19.829 C16.735,19.938 16.476,20.005 16.199,20.005 L1.800,20.005 C1.523,20.005 1.264,19.938 1.029,19.829 L6.848,14.143 L11.151,14.143 Z"/>
</svg>