<?xml version="1.0" encoding="UTF-8"?>
<svg xmlns="http://www.w3.org/2000/svg" xmlns:xlink="http://www.w3.org/1999/xlink" width="16px" height="17px" viewBox="0 0 16 16" version="1.1">
<g id="surface1">
<path style=" stroke:none;fill-rule:nonzero;fill:rgb(0%,0%,0%);fill-opacity:1;" d="M 16 8.179688 C 16 12.601562 12.824219 15.75 8.132812 15.75 C 3.632812 15.75 0 12.289062 0 8 C 0 3.710938 3.632812 0.25 8.132812 0.25 C 10.320312 0.25 12.164062 1.015625 13.582031 2.277344 L 11.371094 4.304688 C 8.476562 1.644531 3.09375 3.644531 3.09375 8 C 3.09375 10.703125 5.355469 12.894531 8.132812 12.894531 C 11.351562 12.894531 12.558594 10.695312 12.746094 9.554688 L 8.132812 9.554688 L 8.132812 6.886719 L 15.871094 6.886719 C 15.949219 7.285156 16 7.664062 16 8.179688 Z M 16 8.179688 "/>
</g>
</svg>
