<svg xmlns="http://www.w3.org/2000/svg" width="20" height="20" viewBox="0 0 20 20">
  <metadata><?xpacket begin="﻿" id="W5M0MpCehiHzreSzNTczkc9d"?>
<x:xmpmeta xmlns:x="adobe:ns:meta/" x:xmptk="Adobe XMP Core 5.6-c138 79.159824, 2016/09/14-01:09:01        ">
   <rdf:RDF xmlns:rdf="http://www.w3.org/1999/02/22-rdf-syntax-ns#">
      <rdf:Description rdf:about=""/>
   </rdf:RDF>
</x:xmpmeta>
                                                                                                    
                                                                                                    
                                                                                                    
                                                                                                    
                                                                                                    
                                                                                                    
                                                                                                    
                                                                                                    
                                                                                                    
                                                                                                    
                                                                                                    
                                                                                                    
                                                                                                    
                                                                                                    
                                                                                                    
                                                                                                    
                                                                                                    
                                                                                                    
                                                                                                    
                                                                                                    
                           
<?xpacket end="w"?></metadata>
<defs>
    <style>
      .cls-1 {
        fill: #29282d;
        fill-rule: evenodd;
      }
    </style>
  </defs>
  <path id="heart_icon" class="cls-1" d="M1484.78,49.589a6.683,6.683,0,0,0-4.17-4.371c-1.71-.595-3.75,0-5.58,1.611-1.83-1.569-3.88-2.122-5.58-1.569a6.884,6.884,0,0,0-4.17,4.371c-0.47,1.57-.51,4.117,1.95,7.215,1.11,1.4,2.82,3.4,4.22,4.965,2.68,3.014,3.11,3.183,3.49,3.183h0.17c0.39,0,.77-0.168,3.45-3.224,1.41-1.613,3.11-3.609,4.22-4.966C1485.25,53.706,1485.25,51.159,1484.78,49.589Zm-3.28,6.2c-1.96,2.462-5.32,6.324-6.47,7.385-1.15-1.061-4.52-4.924-6.48-7.385-1.61-1.994-2.21-3.947-1.7-5.687a4.986,4.986,0,0,1,3.11-3.225c1.23-.467,2.9.169,4.43,1.655a0.84,0.84,0,0,0,1.06.126,0.447,0.447,0,0,0,.22-0.17c1.53-1.443,3.19-2.079,4.42-1.655a5.168,5.168,0,0,1,3.11,3.268C1483.71,51.8,1483.12,53.79,1481.5,55.784Z" transform="translate(-1465.03 -45)"/>
</svg>
