<svg xmlns="http://www.w3.org/2000/svg" width="16" height="16" viewBox="0 0 16 16">
  <metadata><?xpacket begin="﻿" id="W5M0MpCehiHzreSzNTczkc9d"?>
<x:xmpmeta xmlns:x="adobe:ns:meta/" x:xmptk="Adobe XMP Core 5.6-c138 79.159824, 2016/09/14-01:09:01        ">
   <rdf:RDF xmlns:rdf="http://www.w3.org/1999/02/22-rdf-syntax-ns#">
      <rdf:Description rdf:about=""/>
   </rdf:RDF>
</x:xmpmeta>
                                                                                                    
                                                                                                    
                                                                                                    
                                                                                                    
                                                                                                    
                                                                                                    
                                                                                                    
                                                                                                    
                                                                                                    
                                                                                                    
                                                                                                    
                                                                                                    
                                                                                                    
                                                                                                    
                                                                                                    
                                                                                                    
                                                                                                    
                                                                                                    
                                                                                                    
                                                                                                    
                           
<?xpacket end="w"?></metadata>
<defs>
    <style>
      .cls-1 {
        fill: #727272;
        fill-rule: evenodd;
      }
    </style>
  </defs>
  <path id="home_icon" class="cls-1" d="M893,310l-7.771,6.858a0.665,0.665,0,0,0-.064.925h0a0.639,0.639,0,0,0,.91.065l0.286-.253v6.44A1.95,1.95,0,0,0,888.294,326H891.9v-5.274a1.138,1.138,0,0,1,1.128-1.146h0a1.138,1.138,0,0,1,1.128,1.146V326H897.7a1.95,1.95,0,0,0,1.934-1.965v-6.44l0.286,0.253a0.637,0.637,0,0,0,.909-0.065h0a0.663,0.663,0,0,0-.064-0.925Zm5.35,14.035a0.65,0.65,0,0,1-.645.655h-2.256v-3.964a2.437,2.437,0,0,0-2.417-2.456h0a2.437,2.437,0,0,0-2.417,2.456v3.964h-2.32a0.65,0.65,0,0,1-.645-0.655v-7.578l5.35-4.722,5.35,4.722v7.578Z" transform="translate(-885 -310)"/>
</svg>
