<?xml version="1.0" encoding="UTF-8"?>
<svg xmlns="http://www.w3.org/2000/svg" xmlns:xlink="http://www.w3.org/1999/xlink" width="15px" height="16px" viewBox="0 0 15 16" version="1.1">
<g id="surface1">
<path style=" stroke:none;fill-rule:nonzero;fill:rgb(0%,0%,0%);fill-opacity:1;" d="M 3.359375 14 L 0.246094 14 L 0.246094 4.652344 L 3.359375 4.652344 Z M 1.800781 3.378906 C 0.804688 3.378906 0 2.609375 0 1.679688 C 0 0.753906 0.804688 0 1.800781 0 C 2.796875 0 3.601562 0.753906 3.601562 1.679688 C 3.601562 2.609375 2.796875 3.378906 1.800781 3.378906 Z M 14.996094 14 L 11.894531 14 L 11.894531 9.449219 C 11.894531 8.367188 11.871094 6.976562 10.277344 6.976562 C 8.660156 6.976562 8.410156 8.152344 8.410156 9.371094 L 8.410156 14 L 5.304688 14 L 5.304688 4.652344 L 8.289062 4.652344 L 8.289062 5.929688 L 8.332031 5.929688 C 8.746094 5.195312 9.761719 4.417969 11.273438 4.417969 C 14.421875 4.417969 15 6.351562 15 8.867188 L 15 14 Z M 14.996094 14 "/>
</g>
</svg>
