<svg 
 xmlns="http://www.w3.org/2000/svg"
 xmlns:xlink="http://www.w3.org/1999/xlink"
 width="14px" height="20px">
<path fill-rule="evenodd"  fill="rgb(254, 62, 87)"
 d="M6.997,0.005 C3.139,0.005 0.000,3.251 0.000,7.242 C0.000,12.195 6.262,19.466 6.529,19.774 C6.779,20.062 7.216,20.062 7.466,19.774 C7.733,19.466 13.995,12.195 13.995,7.242 C13.995,3.251 10.856,0.005 6.997,0.005 ZM6.997,10.884 C5.056,10.884 3.477,9.250 3.477,7.242 C3.477,5.234 5.056,3.601 6.997,3.601 C8.939,3.601 10.518,5.234 10.518,7.242 C10.518,9.250 8.939,10.884 6.997,10.884 Z"/>
</svg>