<svg 
 xmlns="http://www.w3.org/2000/svg"
 xmlns:xlink="http://www.w3.org/1999/xlink"
 width="20px" height="20px">
<path fill-rule="evenodd"  fill="rgb(254, 62, 87)"
 d="M19.477,17.249 L19.062,17.663 L14.093,12.690 L14.507,12.275 C15.171,11.610 16.329,11.612 16.992,12.275 L19.477,14.762 C20.162,15.447 20.165,16.560 19.477,17.249 ZM9.613,18.153 L1.839,10.369 C-0.515,8.013 -0.598,4.263 1.535,1.775 L6.493,6.737 C6.088,7.259 6.104,8.006 6.583,8.485 L11.495,13.405 C11.973,13.885 12.719,13.901 13.242,13.495 L18.200,18.458 C15.573,20.714 11.872,20.414 9.613,18.153 ZM7.298,5.885 L2.329,0.912 L2.743,0.497 C3.407,-0.168 4.565,-0.167 5.228,0.497 L7.713,2.984 C8.398,3.669 8.400,4.782 7.713,5.471 L7.298,5.885 Z"/>
</svg>