<?xml version="1.0" encoding="UTF-8"?>
<svg xmlns="http://www.w3.org/2000/svg" xmlns:xlink="http://www.w3.org/1999/xlink" width="13px" height="16px" viewBox="0 0 13 16" version="1.1">
<g id="surface1">
<path style=" stroke:none;fill-rule:nonzero;fill:rgb(0%,0%,0%);fill-opacity:1;" d="M 6.90625 0.203125 C 3.433594 0.203125 0 2.339844 0 5.800781 C 0 8 1.339844 9.25 2.152344 9.25 C 2.488281 9.25 2.679688 8.386719 2.679688 8.144531 C 2.679688 7.851562 1.878906 7.234375 1.878906 6.023438 C 1.878906 3.511719 3.949219 1.730469 6.632812 1.730469 C 8.9375 1.730469 10.644531 2.941406 10.644531 5.164062 C 10.644531 6.820312 9.921875 9.933594 7.585938 9.933594 C 6.742188 9.933594 6.023438 9.371094 6.023438 8.566406 C 6.023438 7.382812 6.917969 6.242188 6.917969 5.023438 C 6.917969 2.953125 3.738281 3.328125 3.738281 5.828125 C 3.738281 6.351562 3.808594 6.933594 4.0625 7.414062 C 3.59375 9.269531 2.640625 12.035156 2.640625 13.945312 C 2.640625 14.539062 2.730469 15.117188 2.792969 15.710938 C 2.90625 15.828125 2.851562 15.816406 3.027344 15.757812 C 4.734375 13.601562 4.671875 13.179688 5.445312 10.355469 C 5.859375 11.085938 6.9375 11.480469 7.789062 11.480469 C 11.386719 11.480469 13 8.246094 13 5.332031 C 13 2.226562 10.09375 0.203125 6.90625 0.203125 Z M 6.90625 0.203125 "/>
</g>
</svg>
