<?xml version="1.0" encoding="UTF-8"?>
<svg xmlns="http://www.w3.org/2000/svg" xmlns:xlink="http://www.w3.org/1999/xlink" width="16px" height="14px" viewBox="0 0 16 14" version="1.1">
<g id="surface1">
<path style=" stroke:none;fill-rule:nonzero;fill:rgb(0%,0%,0%);fill-opacity:1;" d="M 14.355469 4.148438 C 14.367188 4.273438 14.367188 4.398438 14.367188 4.523438 C 14.367188 8.316406 11.066406 12.683594 5.035156 12.683594 C 3.175781 12.683594 1.453125 12.214844 0 11.398438 C 0.265625 11.425781 0.519531 11.433594 0.792969 11.433594 C 2.324219 11.433594 3.734375 10.980469 4.863281 10.207031 C 3.421875 10.179688 2.214844 9.355469 1.796875 8.21875 C 2 8.242188 2.203125 8.261719 2.417969 8.261719 C 2.710938 8.261719 3.003906 8.226562 3.277344 8.164062 C 1.777344 7.898438 0.648438 6.742188 0.648438 5.347656 L 0.648438 5.3125 C 1.085938 5.527344 1.59375 5.660156 2.132812 5.675781 C 1.25 5.160156 0.671875 4.28125 0.671875 3.285156 C 0.671875 2.753906 0.832031 2.265625 1.117188 1.839844 C 2.730469 3.578125 5.15625 4.71875 7.878906 4.839844 C 7.828125 4.628906 7.796875 4.40625 7.796875 4.183594 C 7.796875 2.601562 9.257812 1.316406 11.074219 1.316406 C 12.019531 1.316406 12.871094 1.660156 13.472656 2.222656 C 14.214844 2.097656 14.921875 1.855469 15.554688 1.527344 C 15.308594 2.195312 14.792969 2.753906 14.113281 3.109375 C 14.773438 3.046875 15.410156 2.886719 16 2.664062 C 15.554688 3.234375 14.996094 3.738281 14.355469 4.148438 Z M 14.355469 4.148438 "/>
</g>
</svg>
