<svg 
 xmlns="http://www.w3.org/2000/svg"
 xmlns:xlink="http://www.w3.org/1999/xlink"
 width="16px" height="16px">
<path fill-rule="evenodd"  fill="rgb(254, 62, 87)"
 d="M13.657,10.343 C12.785,9.472 11.748,8.827 10.617,8.436 C11.829,7.601 12.625,6.204 12.625,4.625 C12.625,2.074 10.550,-0.000 7.1000,-0.000 C5.450,-0.000 3.375,2.074 3.375,4.625 C3.375,6.204 4.171,7.601 5.383,8.436 C4.252,8.827 3.214,9.472 2.343,10.343 C0.832,11.854 -0.000,13.863 -0.000,15.1000 L1.250,15.1000 C1.250,12.278 4.278,9.250 7.1000,9.250 C11.722,9.250 14.750,12.278 14.750,15.1000 L15.1000,15.1000 C15.1000,13.863 15.168,11.854 13.657,10.343 ZM4.625,4.625 C4.625,2.764 6.139,1.250 7.1000,1.250 C9.861,1.250 11.375,2.764 11.375,4.625 C11.375,6.486 9.861,7.1000 7.1000,7.1000 C6.139,7.1000 4.625,6.486 4.625,4.625 Z"/>
</svg>